<?xml version="1.0" encoding="utf-8" standalone="no"?>
<!DOCTYPE svg PUBLIC "-//W3C//DTD SVG 1.1//EN"
  "http://www.w3.org/Graphics/SVG/1.1/DTD/svg11.dtd">
<svg height="720pt" version="1.1" viewBox="0 0 1152 720" width="1152pt" xmlns="http://www.w3.org/2000/svg" xmlns:xlink="http://www.w3.org/1999/xlink">
 <metadata>
  <rdf:RDF xmlns:cc="http://creativecommons.org/ns#" xmlns:dc="http://purl.org/dc/elements/1.1/" xmlns:rdf="http://www.w3.org/1999/02/22-rdf-syntax-ns#">
   <cc:Work>
    <dc:type rdf:resource="http://purl.org/dc/dcmitype/StillImage"/>
    <dc:date>2022-05-04T09:17:43.218499</dc:date>
    <dc:format>image/svg+xml</dc:format>
    <dc:creator>
     <cc:Agent>
      <dc:title>Matplotlib v3.4.3, https://matplotlib.org/</dc:title>
     </cc:Agent>
    </dc:creator>
   </cc:Work>
  </rdf:RDF>
 </metadata>
 <defs>
  <style type="text/css">*{stroke-linecap:butt;stroke-linejoin:round;}</style>
 </defs>
 <g id="figure_1">
  <g id="patch_1">
   <path d="M 0 720 
L 1152 720 
L 1152 0 
L 0 0 
z
" style="fill:#ffffff;"/>
  </g>
  <g id="axes_1">
   <g id="patch_2">
    <path d="M 144 640.8 
L 1036.8 640.8 
L 1036.8 86.4 
L 144 86.4 
z
" style="fill:#ffffff;"/>
   </g>
   <g id="matplotlib.axis_1">
    <g id="xtick_1">
     <g id="line2d_1">
      <path clip-path="url(#p260129379f)" d="M 144 640.8 
L 144 86.4 
" style="fill:none;stroke:#000000;stroke-linecap:square;stroke-width:0.5;"/>
     </g>
     <g id="line2d_2">
      <defs>
       <path d="M 0 0 
L 0 3.5 
" id="m14be43ea84" style="stroke:#000000;stroke-width:0.8;"/>
      </defs>
      <g>
       <use style="stroke:#000000;stroke-width:0.8;" x="144" xlink:href="#m14be43ea84" y="640.8"/>
      </g>
     </g>
     <g id="text_1">
      <!-- 0 -->
      <g transform="translate(140.81875 655.398438)scale(0.1 -0.1)">
       <defs>
        <path d="M 2034 4250 
Q 1547 4250 1301 3770 
Q 1056 3291 1056 2328 
Q 1056 1369 1301 889 
Q 1547 409 2034 409 
Q 2525 409 2770 889 
Q 3016 1369 3016 2328 
Q 3016 3291 2770 3770 
Q 2525 4250 2034 4250 
z
M 2034 4750 
Q 2819 4750 3233 4129 
Q 3647 3509 3647 2328 
Q 3647 1150 3233 529 
Q 2819 -91 2034 -91 
Q 1250 -91 836 529 
Q 422 1150 422 2328 
Q 422 3509 836 4129 
Q 1250 4750 2034 4750 
z
" id="DejaVuSans-30" transform="scale(0.015625)"/>
       </defs>
       <use xlink:href="#DejaVuSans-30"/>
      </g>
     </g>
    </g>
    <g id="xtick_2">
     <g id="line2d_3">
      <path clip-path="url(#p260129379f)" d="M 250.15113 640.8 
L 250.15113 86.4 
" style="fill:none;stroke:#000000;stroke-linecap:square;stroke-width:0.5;"/>
     </g>
     <g id="line2d_4">
      <g>
       <use style="stroke:#000000;stroke-width:0.8;" x="250.15113" xlink:href="#m14be43ea84" y="640.8"/>
      </g>
     </g>
     <g id="text_2">
      <!-- 10 -->
      <g transform="translate(243.78863 655.398438)scale(0.1 -0.1)">
       <defs>
        <path d="M 794 531 
L 1825 531 
L 1825 4091 
L 703 3866 
L 703 4441 
L 1819 4666 
L 2450 4666 
L 2450 531 
L 3481 531 
L 3481 0 
L 794 0 
L 794 531 
z
" id="DejaVuSans-31" transform="scale(0.015625)"/>
       </defs>
       <use xlink:href="#DejaVuSans-31"/>
       <use x="63.623047" xlink:href="#DejaVuSans-30"/>
      </g>
     </g>
    </g>
    <g id="xtick_3">
     <g id="line2d_5">
      <path clip-path="url(#p260129379f)" d="M 356.30226 640.8 
L 356.30226 86.4 
" style="fill:none;stroke:#000000;stroke-linecap:square;stroke-width:0.5;"/>
     </g>
     <g id="line2d_6">
      <g>
       <use style="stroke:#000000;stroke-width:0.8;" x="356.30226" xlink:href="#m14be43ea84" y="640.8"/>
      </g>
     </g>
     <g id="text_3">
      <!-- 20 -->
      <g transform="translate(349.93976 655.398438)scale(0.1 -0.1)">
       <defs>
        <path d="M 1228 531 
L 3431 531 
L 3431 0 
L 469 0 
L 469 531 
Q 828 903 1448 1529 
Q 2069 2156 2228 2338 
Q 2531 2678 2651 2914 
Q 2772 3150 2772 3378 
Q 2772 3750 2511 3984 
Q 2250 4219 1831 4219 
Q 1534 4219 1204 4116 
Q 875 4013 500 3803 
L 500 4441 
Q 881 4594 1212 4672 
Q 1544 4750 1819 4750 
Q 2544 4750 2975 4387 
Q 3406 4025 3406 3419 
Q 3406 3131 3298 2873 
Q 3191 2616 2906 2266 
Q 2828 2175 2409 1742 
Q 1991 1309 1228 531 
z
" id="DejaVuSans-32" transform="scale(0.015625)"/>
       </defs>
       <use xlink:href="#DejaVuSans-32"/>
       <use x="63.623047" xlink:href="#DejaVuSans-30"/>
      </g>
     </g>
    </g>
    <g id="xtick_4">
     <g id="line2d_7">
      <path clip-path="url(#p260129379f)" d="M 462.453389 640.8 
L 462.453389 86.4 
" style="fill:none;stroke:#000000;stroke-linecap:square;stroke-width:0.5;"/>
     </g>
     <g id="line2d_8">
      <g>
       <use style="stroke:#000000;stroke-width:0.8;" x="462.453389" xlink:href="#m14be43ea84" y="640.8"/>
      </g>
     </g>
     <g id="text_4">
      <!-- 30 -->
      <g transform="translate(456.090889 655.398438)scale(0.1 -0.1)">
       <defs>
        <path d="M 2597 2516 
Q 3050 2419 3304 2112 
Q 3559 1806 3559 1356 
Q 3559 666 3084 287 
Q 2609 -91 1734 -91 
Q 1441 -91 1130 -33 
Q 819 25 488 141 
L 488 750 
Q 750 597 1062 519 
Q 1375 441 1716 441 
Q 2309 441 2620 675 
Q 2931 909 2931 1356 
Q 2931 1769 2642 2001 
Q 2353 2234 1838 2234 
L 1294 2234 
L 1294 2753 
L 1863 2753 
Q 2328 2753 2575 2939 
Q 2822 3125 2822 3475 
Q 2822 3834 2567 4026 
Q 2313 4219 1838 4219 
Q 1578 4219 1281 4162 
Q 984 4106 628 3988 
L 628 4550 
Q 988 4650 1302 4700 
Q 1616 4750 1894 4750 
Q 2613 4750 3031 4423 
Q 3450 4097 3450 3541 
Q 3450 3153 3228 2886 
Q 3006 2619 2597 2516 
z
" id="DejaVuSans-33" transform="scale(0.015625)"/>
       </defs>
       <use xlink:href="#DejaVuSans-33"/>
       <use x="63.623047" xlink:href="#DejaVuSans-30"/>
      </g>
     </g>
    </g>
    <g id="xtick_5">
     <g id="line2d_9">
      <path clip-path="url(#p260129379f)" d="M 568.604519 640.8 
L 568.604519 86.4 
" style="fill:none;stroke:#000000;stroke-linecap:square;stroke-width:0.5;"/>
     </g>
     <g id="line2d_10">
      <g>
       <use style="stroke:#000000;stroke-width:0.8;" x="568.604519" xlink:href="#m14be43ea84" y="640.8"/>
      </g>
     </g>
     <g id="text_5">
      <!-- 40 -->
      <g transform="translate(562.242019 655.398438)scale(0.1 -0.1)">
       <defs>
        <path d="M 2419 4116 
L 825 1625 
L 2419 1625 
L 2419 4116 
z
M 2253 4666 
L 3047 4666 
L 3047 1625 
L 3713 1625 
L 3713 1100 
L 3047 1100 
L 3047 0 
L 2419 0 
L 2419 1100 
L 313 1100 
L 313 1709 
L 2253 4666 
z
" id="DejaVuSans-34" transform="scale(0.015625)"/>
       </defs>
       <use xlink:href="#DejaVuSans-34"/>
       <use x="63.623047" xlink:href="#DejaVuSans-30"/>
      </g>
     </g>
    </g>
    <g id="xtick_6">
     <g id="line2d_11">
      <path clip-path="url(#p260129379f)" d="M 674.755649 640.8 
L 674.755649 86.4 
" style="fill:none;stroke:#000000;stroke-linecap:square;stroke-width:0.5;"/>
     </g>
     <g id="line2d_12">
      <g>
       <use style="stroke:#000000;stroke-width:0.8;" x="674.755649" xlink:href="#m14be43ea84" y="640.8"/>
      </g>
     </g>
     <g id="text_6">
      <!-- 50 -->
      <g transform="translate(668.393149 655.398438)scale(0.1 -0.1)">
       <defs>
        <path d="M 691 4666 
L 3169 4666 
L 3169 4134 
L 1269 4134 
L 1269 2991 
Q 1406 3038 1543 3061 
Q 1681 3084 1819 3084 
Q 2600 3084 3056 2656 
Q 3513 2228 3513 1497 
Q 3513 744 3044 326 
Q 2575 -91 1722 -91 
Q 1428 -91 1123 -41 
Q 819 9 494 109 
L 494 744 
Q 775 591 1075 516 
Q 1375 441 1709 441 
Q 2250 441 2565 725 
Q 2881 1009 2881 1497 
Q 2881 1984 2565 2268 
Q 2250 2553 1709 2553 
Q 1456 2553 1204 2497 
Q 953 2441 691 2322 
L 691 4666 
z
" id="DejaVuSans-35" transform="scale(0.015625)"/>
       </defs>
       <use xlink:href="#DejaVuSans-35"/>
       <use x="63.623047" xlink:href="#DejaVuSans-30"/>
      </g>
     </g>
    </g>
    <g id="xtick_7">
     <g id="line2d_13">
      <path clip-path="url(#p260129379f)" d="M 780.906779 640.8 
L 780.906779 86.4 
" style="fill:none;stroke:#000000;stroke-linecap:square;stroke-width:0.5;"/>
     </g>
     <g id="line2d_14">
      <g>
       <use style="stroke:#000000;stroke-width:0.8;" x="780.906779" xlink:href="#m14be43ea84" y="640.8"/>
      </g>
     </g>
     <g id="text_7">
      <!-- 60 -->
      <g transform="translate(774.544279 655.398438)scale(0.1 -0.1)">
       <defs>
        <path d="M 2113 2584 
Q 1688 2584 1439 2293 
Q 1191 2003 1191 1497 
Q 1191 994 1439 701 
Q 1688 409 2113 409 
Q 2538 409 2786 701 
Q 3034 994 3034 1497 
Q 3034 2003 2786 2293 
Q 2538 2584 2113 2584 
z
M 3366 4563 
L 3366 3988 
Q 3128 4100 2886 4159 
Q 2644 4219 2406 4219 
Q 1781 4219 1451 3797 
Q 1122 3375 1075 2522 
Q 1259 2794 1537 2939 
Q 1816 3084 2150 3084 
Q 2853 3084 3261 2657 
Q 3669 2231 3669 1497 
Q 3669 778 3244 343 
Q 2819 -91 2113 -91 
Q 1303 -91 875 529 
Q 447 1150 447 2328 
Q 447 3434 972 4092 
Q 1497 4750 2381 4750 
Q 2619 4750 2861 4703 
Q 3103 4656 3366 4563 
z
" id="DejaVuSans-36" transform="scale(0.015625)"/>
       </defs>
       <use xlink:href="#DejaVuSans-36"/>
       <use x="63.623047" xlink:href="#DejaVuSans-30"/>
      </g>
     </g>
    </g>
    <g id="xtick_8">
     <g id="line2d_15">
      <path clip-path="url(#p260129379f)" d="M 887.057909 640.8 
L 887.057909 86.4 
" style="fill:none;stroke:#000000;stroke-linecap:square;stroke-width:0.5;"/>
     </g>
     <g id="line2d_16">
      <g>
       <use style="stroke:#000000;stroke-width:0.8;" x="887.057909" xlink:href="#m14be43ea84" y="640.8"/>
      </g>
     </g>
     <g id="text_8">
      <!-- 70 -->
      <g transform="translate(880.695409 655.398438)scale(0.1 -0.1)">
       <defs>
        <path d="M 525 4666 
L 3525 4666 
L 3525 4397 
L 1831 0 
L 1172 0 
L 2766 4134 
L 525 4134 
L 525 4666 
z
" id="DejaVuSans-37" transform="scale(0.015625)"/>
       </defs>
       <use xlink:href="#DejaVuSans-37"/>
       <use x="63.623047" xlink:href="#DejaVuSans-30"/>
      </g>
     </g>
    </g>
    <g id="xtick_9">
     <g id="line2d_17">
      <path clip-path="url(#p260129379f)" d="M 993.209039 640.8 
L 993.209039 86.4 
" style="fill:none;stroke:#000000;stroke-linecap:square;stroke-width:0.5;"/>
     </g>
     <g id="line2d_18">
      <g>
       <use style="stroke:#000000;stroke-width:0.8;" x="993.209039" xlink:href="#m14be43ea84" y="640.8"/>
      </g>
     </g>
     <g id="text_9">
      <!-- 80 -->
      <g transform="translate(986.846539 655.398438)scale(0.1 -0.1)">
       <defs>
        <path d="M 2034 2216 
Q 1584 2216 1326 1975 
Q 1069 1734 1069 1313 
Q 1069 891 1326 650 
Q 1584 409 2034 409 
Q 2484 409 2743 651 
Q 3003 894 3003 1313 
Q 3003 1734 2745 1975 
Q 2488 2216 2034 2216 
z
M 1403 2484 
Q 997 2584 770 2862 
Q 544 3141 544 3541 
Q 544 4100 942 4425 
Q 1341 4750 2034 4750 
Q 2731 4750 3128 4425 
Q 3525 4100 3525 3541 
Q 3525 3141 3298 2862 
Q 3072 2584 2669 2484 
Q 3125 2378 3379 2068 
Q 3634 1759 3634 1313 
Q 3634 634 3220 271 
Q 2806 -91 2034 -91 
Q 1263 -91 848 271 
Q 434 634 434 1313 
Q 434 1759 690 2068 
Q 947 2378 1403 2484 
z
M 1172 3481 
Q 1172 3119 1398 2916 
Q 1625 2713 2034 2713 
Q 2441 2713 2670 2916 
Q 2900 3119 2900 3481 
Q 2900 3844 2670 4047 
Q 2441 4250 2034 4250 
Q 1625 4250 1398 4047 
Q 1172 3844 1172 3481 
z
" id="DejaVuSans-38" transform="scale(0.015625)"/>
       </defs>
       <use xlink:href="#DejaVuSans-38"/>
       <use x="63.623047" xlink:href="#DejaVuSans-30"/>
      </g>
     </g>
    </g>
    <g id="xtick_10">
     <g id="line2d_19">
      <path clip-path="url(#p260129379f)" d="M 165.230226 640.8 
L 165.230226 86.4 
" style="fill:none;stroke:#000000;stroke-dasharray:2.96,1.28;stroke-dashoffset:0;stroke-width:0.8;"/>
     </g>
     <g id="line2d_20">
      <defs>
       <path d="M 0 0 
L 0 2 
" id="mfa2df98581" style="stroke:#000000;stroke-width:0.6;"/>
      </defs>
      <g>
       <use style="stroke:#000000;stroke-width:0.6;" x="165.230226" xlink:href="#mfa2df98581" y="640.8"/>
      </g>
     </g>
    </g>
    <g id="xtick_11">
     <g id="line2d_21">
      <path clip-path="url(#p260129379f)" d="M 186.460452 640.8 
L 186.460452 86.4 
" style="fill:none;stroke:#000000;stroke-dasharray:2.96,1.28;stroke-dashoffset:0;stroke-width:0.8;"/>
     </g>
     <g id="line2d_22">
      <g>
       <use style="stroke:#000000;stroke-width:0.6;" x="186.460452" xlink:href="#mfa2df98581" y="640.8"/>
      </g>
     </g>
    </g>
    <g id="xtick_12">
     <g id="line2d_23">
      <path clip-path="url(#p260129379f)" d="M 207.690678 640.8 
L 207.690678 86.4 
" style="fill:none;stroke:#000000;stroke-dasharray:2.96,1.28;stroke-dashoffset:0;stroke-width:0.8;"/>
     </g>
     <g id="line2d_24">
      <g>
       <use style="stroke:#000000;stroke-width:0.6;" x="207.690678" xlink:href="#mfa2df98581" y="640.8"/>
      </g>
     </g>
    </g>
    <g id="xtick_13">
     <g id="line2d_25">
      <path clip-path="url(#p260129379f)" d="M 228.920904 640.8 
L 228.920904 86.4 
" style="fill:none;stroke:#000000;stroke-dasharray:2.96,1.28;stroke-dashoffset:0;stroke-width:0.8;"/>
     </g>
     <g id="line2d_26">
      <g>
       <use style="stroke:#000000;stroke-width:0.6;" x="228.920904" xlink:href="#mfa2df98581" y="640.8"/>
      </g>
     </g>
    </g>
    <g id="xtick_14">
     <g id="line2d_27">
      <path clip-path="url(#p260129379f)" d="M 271.381356 640.8 
L 271.381356 86.4 
" style="fill:none;stroke:#000000;stroke-dasharray:2.96,1.28;stroke-dashoffset:0;stroke-width:0.8;"/>
     </g>
     <g id="line2d_28">
      <g>
       <use style="stroke:#000000;stroke-width:0.6;" x="271.381356" xlink:href="#mfa2df98581" y="640.8"/>
      </g>
     </g>
    </g>
    <g id="xtick_15">
     <g id="line2d_29">
      <path clip-path="url(#p260129379f)" d="M 292.611582 640.8 
L 292.611582 86.4 
" style="fill:none;stroke:#000000;stroke-dasharray:2.96,1.28;stroke-dashoffset:0;stroke-width:0.8;"/>
     </g>
     <g id="line2d_30">
      <g>
       <use style="stroke:#000000;stroke-width:0.6;" x="292.611582" xlink:href="#mfa2df98581" y="640.8"/>
      </g>
     </g>
    </g>
    <g id="xtick_16">
     <g id="line2d_31">
      <path clip-path="url(#p260129379f)" d="M 313.841808 640.8 
L 313.841808 86.4 
" style="fill:none;stroke:#000000;stroke-dasharray:2.96,1.28;stroke-dashoffset:0;stroke-width:0.8;"/>
     </g>
     <g id="line2d_32">
      <g>
       <use style="stroke:#000000;stroke-width:0.6;" x="313.841808" xlink:href="#mfa2df98581" y="640.8"/>
      </g>
     </g>
    </g>
    <g id="xtick_17">
     <g id="line2d_33">
      <path clip-path="url(#p260129379f)" d="M 335.072034 640.8 
L 335.072034 86.4 
" style="fill:none;stroke:#000000;stroke-dasharray:2.96,1.28;stroke-dashoffset:0;stroke-width:0.8;"/>
     </g>
     <g id="line2d_34">
      <g>
       <use style="stroke:#000000;stroke-width:0.6;" x="335.072034" xlink:href="#mfa2df98581" y="640.8"/>
      </g>
     </g>
    </g>
    <g id="xtick_18">
     <g id="line2d_35">
      <path clip-path="url(#p260129379f)" d="M 377.532486 640.8 
L 377.532486 86.4 
" style="fill:none;stroke:#000000;stroke-dasharray:2.96,1.28;stroke-dashoffset:0;stroke-width:0.8;"/>
     </g>
     <g id="line2d_36">
      <g>
       <use style="stroke:#000000;stroke-width:0.6;" x="377.532486" xlink:href="#mfa2df98581" y="640.8"/>
      </g>
     </g>
    </g>
    <g id="xtick_19">
     <g id="line2d_37">
      <path clip-path="url(#p260129379f)" d="M 398.762712 640.8 
L 398.762712 86.4 
" style="fill:none;stroke:#000000;stroke-dasharray:2.96,1.28;stroke-dashoffset:0;stroke-width:0.8;"/>
     </g>
     <g id="line2d_38">
      <g>
       <use style="stroke:#000000;stroke-width:0.6;" x="398.762712" xlink:href="#mfa2df98581" y="640.8"/>
      </g>
     </g>
    </g>
    <g id="xtick_20">
     <g id="line2d_39">
      <path clip-path="url(#p260129379f)" d="M 419.992938 640.8 
L 419.992938 86.4 
" style="fill:none;stroke:#000000;stroke-dasharray:2.96,1.28;stroke-dashoffset:0;stroke-width:0.8;"/>
     </g>
     <g id="line2d_40">
      <g>
       <use style="stroke:#000000;stroke-width:0.6;" x="419.992938" xlink:href="#mfa2df98581" y="640.8"/>
      </g>
     </g>
    </g>
    <g id="xtick_21">
     <g id="line2d_41">
      <path clip-path="url(#p260129379f)" d="M 441.223163 640.8 
L 441.223163 86.4 
" style="fill:none;stroke:#000000;stroke-dasharray:2.96,1.28;stroke-dashoffset:0;stroke-width:0.8;"/>
     </g>
     <g id="line2d_42">
      <g>
       <use style="stroke:#000000;stroke-width:0.6;" x="441.223163" xlink:href="#mfa2df98581" y="640.8"/>
      </g>
     </g>
    </g>
    <g id="xtick_22">
     <g id="line2d_43">
      <path clip-path="url(#p260129379f)" d="M 483.683615 640.8 
L 483.683615 86.4 
" style="fill:none;stroke:#000000;stroke-dasharray:2.96,1.28;stroke-dashoffset:0;stroke-width:0.8;"/>
     </g>
     <g id="line2d_44">
      <g>
       <use style="stroke:#000000;stroke-width:0.6;" x="483.683615" xlink:href="#mfa2df98581" y="640.8"/>
      </g>
     </g>
    </g>
    <g id="xtick_23">
     <g id="line2d_45">
      <path clip-path="url(#p260129379f)" d="M 504.913841 640.8 
L 504.913841 86.4 
" style="fill:none;stroke:#000000;stroke-dasharray:2.96,1.28;stroke-dashoffset:0;stroke-width:0.8;"/>
     </g>
     <g id="line2d_46">
      <g>
       <use style="stroke:#000000;stroke-width:0.6;" x="504.913841" xlink:href="#mfa2df98581" y="640.8"/>
      </g>
     </g>
    </g>
    <g id="xtick_24">
     <g id="line2d_47">
      <path clip-path="url(#p260129379f)" d="M 526.144067 640.8 
L 526.144067 86.4 
" style="fill:none;stroke:#000000;stroke-dasharray:2.96,1.28;stroke-dashoffset:0;stroke-width:0.8;"/>
     </g>
     <g id="line2d_48">
      <g>
       <use style="stroke:#000000;stroke-width:0.6;" x="526.144067" xlink:href="#mfa2df98581" y="640.8"/>
      </g>
     </g>
    </g>
    <g id="xtick_25">
     <g id="line2d_49">
      <path clip-path="url(#p260129379f)" d="M 547.374293 640.8 
L 547.374293 86.4 
" style="fill:none;stroke:#000000;stroke-dasharray:2.96,1.28;stroke-dashoffset:0;stroke-width:0.8;"/>
     </g>
     <g id="line2d_50">
      <g>
       <use style="stroke:#000000;stroke-width:0.6;" x="547.374293" xlink:href="#mfa2df98581" y="640.8"/>
      </g>
     </g>
    </g>
    <g id="xtick_26">
     <g id="line2d_51">
      <path clip-path="url(#p260129379f)" d="M 589.834745 640.8 
L 589.834745 86.4 
" style="fill:none;stroke:#000000;stroke-dasharray:2.96,1.28;stroke-dashoffset:0;stroke-width:0.8;"/>
     </g>
     <g id="line2d_52">
      <g>
       <use style="stroke:#000000;stroke-width:0.6;" x="589.834745" xlink:href="#mfa2df98581" y="640.8"/>
      </g>
     </g>
    </g>
    <g id="xtick_27">
     <g id="line2d_53">
      <path clip-path="url(#p260129379f)" d="M 611.064971 640.8 
L 611.064971 86.4 
" style="fill:none;stroke:#000000;stroke-dasharray:2.96,1.28;stroke-dashoffset:0;stroke-width:0.8;"/>
     </g>
     <g id="line2d_54">
      <g>
       <use style="stroke:#000000;stroke-width:0.6;" x="611.064971" xlink:href="#mfa2df98581" y="640.8"/>
      </g>
     </g>
    </g>
    <g id="xtick_28">
     <g id="line2d_55">
      <path clip-path="url(#p260129379f)" d="M 632.295197 640.8 
L 632.295197 86.4 
" style="fill:none;stroke:#000000;stroke-dasharray:2.96,1.28;stroke-dashoffset:0;stroke-width:0.8;"/>
     </g>
     <g id="line2d_56">
      <g>
       <use style="stroke:#000000;stroke-width:0.6;" x="632.295197" xlink:href="#mfa2df98581" y="640.8"/>
      </g>
     </g>
    </g>
    <g id="xtick_29">
     <g id="line2d_57">
      <path clip-path="url(#p260129379f)" d="M 653.525423 640.8 
L 653.525423 86.4 
" style="fill:none;stroke:#000000;stroke-dasharray:2.96,1.28;stroke-dashoffset:0;stroke-width:0.8;"/>
     </g>
     <g id="line2d_58">
      <g>
       <use style="stroke:#000000;stroke-width:0.6;" x="653.525423" xlink:href="#mfa2df98581" y="640.8"/>
      </g>
     </g>
    </g>
    <g id="xtick_30">
     <g id="line2d_59">
      <path clip-path="url(#p260129379f)" d="M 695.985875 640.8 
L 695.985875 86.4 
" style="fill:none;stroke:#000000;stroke-dasharray:2.96,1.28;stroke-dashoffset:0;stroke-width:0.8;"/>
     </g>
     <g id="line2d_60">
      <g>
       <use style="stroke:#000000;stroke-width:0.6;" x="695.985875" xlink:href="#mfa2df98581" y="640.8"/>
      </g>
     </g>
    </g>
    <g id="xtick_31">
     <g id="line2d_61">
      <path clip-path="url(#p260129379f)" d="M 717.216101 640.8 
L 717.216101 86.4 
" style="fill:none;stroke:#000000;stroke-dasharray:2.96,1.28;stroke-dashoffset:0;stroke-width:0.8;"/>
     </g>
     <g id="line2d_62">
      <g>
       <use style="stroke:#000000;stroke-width:0.6;" x="717.216101" xlink:href="#mfa2df98581" y="640.8"/>
      </g>
     </g>
    </g>
    <g id="xtick_32">
     <g id="line2d_63">
      <path clip-path="url(#p260129379f)" d="M 738.446327 640.8 
L 738.446327 86.4 
" style="fill:none;stroke:#000000;stroke-dasharray:2.96,1.28;stroke-dashoffset:0;stroke-width:0.8;"/>
     </g>
     <g id="line2d_64">
      <g>
       <use style="stroke:#000000;stroke-width:0.6;" x="738.446327" xlink:href="#mfa2df98581" y="640.8"/>
      </g>
     </g>
    </g>
    <g id="xtick_33">
     <g id="line2d_65">
      <path clip-path="url(#p260129379f)" d="M 759.676553 640.8 
L 759.676553 86.4 
" style="fill:none;stroke:#000000;stroke-dasharray:2.96,1.28;stroke-dashoffset:0;stroke-width:0.8;"/>
     </g>
     <g id="line2d_66">
      <g>
       <use style="stroke:#000000;stroke-width:0.6;" x="759.676553" xlink:href="#mfa2df98581" y="640.8"/>
      </g>
     </g>
    </g>
    <g id="xtick_34">
     <g id="line2d_67">
      <path clip-path="url(#p260129379f)" d="M 802.137005 640.8 
L 802.137005 86.4 
" style="fill:none;stroke:#000000;stroke-dasharray:2.96,1.28;stroke-dashoffset:0;stroke-width:0.8;"/>
     </g>
     <g id="line2d_68">
      <g>
       <use style="stroke:#000000;stroke-width:0.6;" x="802.137005" xlink:href="#mfa2df98581" y="640.8"/>
      </g>
     </g>
    </g>
    <g id="xtick_35">
     <g id="line2d_69">
      <path clip-path="url(#p260129379f)" d="M 823.367231 640.8 
L 823.367231 86.4 
" style="fill:none;stroke:#000000;stroke-dasharray:2.96,1.28;stroke-dashoffset:0;stroke-width:0.8;"/>
     </g>
     <g id="line2d_70">
      <g>
       <use style="stroke:#000000;stroke-width:0.6;" x="823.367231" xlink:href="#mfa2df98581" y="640.8"/>
      </g>
     </g>
    </g>
    <g id="xtick_36">
     <g id="line2d_71">
      <path clip-path="url(#p260129379f)" d="M 844.597457 640.8 
L 844.597457 86.4 
" style="fill:none;stroke:#000000;stroke-dasharray:2.96,1.28;stroke-dashoffset:0;stroke-width:0.8;"/>
     </g>
     <g id="line2d_72">
      <g>
       <use style="stroke:#000000;stroke-width:0.6;" x="844.597457" xlink:href="#mfa2df98581" y="640.8"/>
      </g>
     </g>
    </g>
    <g id="xtick_37">
     <g id="line2d_73">
      <path clip-path="url(#p260129379f)" d="M 865.827683 640.8 
L 865.827683 86.4 
" style="fill:none;stroke:#000000;stroke-dasharray:2.96,1.28;stroke-dashoffset:0;stroke-width:0.8;"/>
     </g>
     <g id="line2d_74">
      <g>
       <use style="stroke:#000000;stroke-width:0.6;" x="865.827683" xlink:href="#mfa2df98581" y="640.8"/>
      </g>
     </g>
    </g>
    <g id="xtick_38">
     <g id="line2d_75">
      <path clip-path="url(#p260129379f)" d="M 908.288135 640.8 
L 908.288135 86.4 
" style="fill:none;stroke:#000000;stroke-dasharray:2.96,1.28;stroke-dashoffset:0;stroke-width:0.8;"/>
     </g>
     <g id="line2d_76">
      <g>
       <use style="stroke:#000000;stroke-width:0.6;" x="908.288135" xlink:href="#mfa2df98581" y="640.8"/>
      </g>
     </g>
    </g>
    <g id="xtick_39">
     <g id="line2d_77">
      <path clip-path="url(#p260129379f)" d="M 929.518361 640.8 
L 929.518361 86.4 
" style="fill:none;stroke:#000000;stroke-dasharray:2.96,1.28;stroke-dashoffset:0;stroke-width:0.8;"/>
     </g>
     <g id="line2d_78">
      <g>
       <use style="stroke:#000000;stroke-width:0.6;" x="929.518361" xlink:href="#mfa2df98581" y="640.8"/>
      </g>
     </g>
    </g>
    <g id="xtick_40">
     <g id="line2d_79">
      <path clip-path="url(#p260129379f)" d="M 950.748587 640.8 
L 950.748587 86.4 
" style="fill:none;stroke:#000000;stroke-dasharray:2.96,1.28;stroke-dashoffset:0;stroke-width:0.8;"/>
     </g>
     <g id="line2d_80">
      <g>
       <use style="stroke:#000000;stroke-width:0.6;" x="950.748587" xlink:href="#mfa2df98581" y="640.8"/>
      </g>
     </g>
    </g>
    <g id="xtick_41">
     <g id="line2d_81">
      <path clip-path="url(#p260129379f)" d="M 971.978813 640.8 
L 971.978813 86.4 
" style="fill:none;stroke:#000000;stroke-dasharray:2.96,1.28;stroke-dashoffset:0;stroke-width:0.8;"/>
     </g>
     <g id="line2d_82">
      <g>
       <use style="stroke:#000000;stroke-width:0.6;" x="971.978813" xlink:href="#mfa2df98581" y="640.8"/>
      </g>
     </g>
    </g>
    <g id="xtick_42">
     <g id="line2d_83">
      <path clip-path="url(#p260129379f)" d="M 1014.439265 640.8 
L 1014.439265 86.4 
" style="fill:none;stroke:#000000;stroke-dasharray:2.96,1.28;stroke-dashoffset:0;stroke-width:0.8;"/>
     </g>
     <g id="line2d_84">
      <g>
       <use style="stroke:#000000;stroke-width:0.6;" x="1014.439265" xlink:href="#mfa2df98581" y="640.8"/>
      </g>
     </g>
    </g>
    <g id="xtick_43">
     <g id="line2d_85">
      <path clip-path="url(#p260129379f)" d="M 1035.66949 640.8 
L 1035.66949 86.4 
" style="fill:none;stroke:#000000;stroke-dasharray:2.96,1.28;stroke-dashoffset:0;stroke-width:0.8;"/>
     </g>
     <g id="line2d_86">
      <g>
       <use style="stroke:#000000;stroke-width:0.6;" x="1035.66949" xlink:href="#mfa2df98581" y="640.8"/>
      </g>
     </g>
    </g>
    <g id="text_10">
     <!-- Time, s -->
     <g transform="translate(563.375391 672.875781)scale(0.15 -0.15)">
      <defs>
       <path d="M -19 4666 
L 3928 4666 
L 3928 4134 
L 2272 4134 
L 2272 0 
L 1638 0 
L 1638 4134 
L -19 4134 
L -19 4666 
z
" id="DejaVuSans-54" transform="scale(0.015625)"/>
       <path d="M 603 3500 
L 1178 3500 
L 1178 0 
L 603 0 
L 603 3500 
z
M 603 4863 
L 1178 4863 
L 1178 4134 
L 603 4134 
L 603 4863 
z
" id="DejaVuSans-69" transform="scale(0.015625)"/>
       <path d="M 3328 2828 
Q 3544 3216 3844 3400 
Q 4144 3584 4550 3584 
Q 5097 3584 5394 3201 
Q 5691 2819 5691 2113 
L 5691 0 
L 5113 0 
L 5113 2094 
Q 5113 2597 4934 2840 
Q 4756 3084 4391 3084 
Q 3944 3084 3684 2787 
Q 3425 2491 3425 1978 
L 3425 0 
L 2847 0 
L 2847 2094 
Q 2847 2600 2669 2842 
Q 2491 3084 2119 3084 
Q 1678 3084 1418 2786 
Q 1159 2488 1159 1978 
L 1159 0 
L 581 0 
L 581 3500 
L 1159 3500 
L 1159 2956 
Q 1356 3278 1631 3431 
Q 1906 3584 2284 3584 
Q 2666 3584 2933 3390 
Q 3200 3197 3328 2828 
z
" id="DejaVuSans-6d" transform="scale(0.015625)"/>
       <path d="M 3597 1894 
L 3597 1613 
L 953 1613 
Q 991 1019 1311 708 
Q 1631 397 2203 397 
Q 2534 397 2845 478 
Q 3156 559 3463 722 
L 3463 178 
Q 3153 47 2828 -22 
Q 2503 -91 2169 -91 
Q 1331 -91 842 396 
Q 353 884 353 1716 
Q 353 2575 817 3079 
Q 1281 3584 2069 3584 
Q 2775 3584 3186 3129 
Q 3597 2675 3597 1894 
z
M 3022 2063 
Q 3016 2534 2758 2815 
Q 2500 3097 2075 3097 
Q 1594 3097 1305 2825 
Q 1016 2553 972 2059 
L 3022 2063 
z
" id="DejaVuSans-65" transform="scale(0.015625)"/>
       <path d="M 750 794 
L 1409 794 
L 1409 256 
L 897 -744 
L 494 -744 
L 750 256 
L 750 794 
z
" id="DejaVuSans-2c" transform="scale(0.015625)"/>
       <path id="DejaVuSans-20" transform="scale(0.015625)"/>
       <path d="M 2834 3397 
L 2834 2853 
Q 2591 2978 2328 3040 
Q 2066 3103 1784 3103 
Q 1356 3103 1142 2972 
Q 928 2841 928 2578 
Q 928 2378 1081 2264 
Q 1234 2150 1697 2047 
L 1894 2003 
Q 2506 1872 2764 1633 
Q 3022 1394 3022 966 
Q 3022 478 2636 193 
Q 2250 -91 1575 -91 
Q 1294 -91 989 -36 
Q 684 19 347 128 
L 347 722 
Q 666 556 975 473 
Q 1284 391 1588 391 
Q 1994 391 2212 530 
Q 2431 669 2431 922 
Q 2431 1156 2273 1281 
Q 2116 1406 1581 1522 
L 1381 1569 
Q 847 1681 609 1914 
Q 372 2147 372 2553 
Q 372 3047 722 3315 
Q 1072 3584 1716 3584 
Q 2034 3584 2315 3537 
Q 2597 3491 2834 3397 
z
" id="DejaVuSans-73" transform="scale(0.015625)"/>
      </defs>
      <use xlink:href="#DejaVuSans-54"/>
      <use x="57.958984" xlink:href="#DejaVuSans-69"/>
      <use x="85.742188" xlink:href="#DejaVuSans-6d"/>
      <use x="183.154297" xlink:href="#DejaVuSans-65"/>
      <use x="244.677734" xlink:href="#DejaVuSans-2c"/>
      <use x="276.464844" xlink:href="#DejaVuSans-20"/>
      <use x="308.251953" xlink:href="#DejaVuSans-73"/>
     </g>
    </g>
   </g>
   <g id="matplotlib.axis_2">
    <g id="ytick_1">
     <g id="line2d_87">
      <path clip-path="url(#p260129379f)" d="M 144 640.8 
L 1036.8 640.8 
" style="fill:none;stroke:#000000;stroke-linecap:square;stroke-width:0.5;"/>
     </g>
     <g id="line2d_88">
      <defs>
       <path d="M 0 0 
L -3.5 0 
" id="mea45ff8920" style="stroke:#000000;stroke-width:0.8;"/>
      </defs>
      <g>
       <use style="stroke:#000000;stroke-width:0.8;" x="144" xlink:href="#mea45ff8920" y="640.8"/>
      </g>
     </g>
     <g id="text_11">
      <!-- 0.0 -->
      <g transform="translate(121.096875 644.599219)scale(0.1 -0.1)">
       <defs>
        <path d="M 684 794 
L 1344 794 
L 1344 0 
L 684 0 
L 684 794 
z
" id="DejaVuSans-2e" transform="scale(0.015625)"/>
       </defs>
       <use xlink:href="#DejaVuSans-30"/>
       <use x="63.623047" xlink:href="#DejaVuSans-2e"/>
       <use x="95.410156" xlink:href="#DejaVuSans-30"/>
      </g>
     </g>
    </g>
    <g id="ytick_2">
     <g id="line2d_89">
      <path clip-path="url(#p260129379f)" d="M 144 556.8 
L 1036.8 556.8 
" style="fill:none;stroke:#000000;stroke-linecap:square;stroke-width:0.5;"/>
     </g>
     <g id="line2d_90">
      <g>
       <use style="stroke:#000000;stroke-width:0.8;" x="144" xlink:href="#mea45ff8920" y="556.8"/>
      </g>
     </g>
     <g id="text_12">
      <!-- 0.5 -->
      <g transform="translate(121.096875 560.599219)scale(0.1 -0.1)">
       <use xlink:href="#DejaVuSans-30"/>
       <use x="63.623047" xlink:href="#DejaVuSans-2e"/>
       <use x="95.410156" xlink:href="#DejaVuSans-35"/>
      </g>
     </g>
    </g>
    <g id="ytick_3">
     <g id="line2d_91">
      <path clip-path="url(#p260129379f)" d="M 144 472.8 
L 1036.8 472.8 
" style="fill:none;stroke:#000000;stroke-linecap:square;stroke-width:0.5;"/>
     </g>
     <g id="line2d_92">
      <g>
       <use style="stroke:#000000;stroke-width:0.8;" x="144" xlink:href="#mea45ff8920" y="472.8"/>
      </g>
     </g>
     <g id="text_13">
      <!-- 1.0 -->
      <g transform="translate(121.096875 476.599219)scale(0.1 -0.1)">
       <use xlink:href="#DejaVuSans-31"/>
       <use x="63.623047" xlink:href="#DejaVuSans-2e"/>
       <use x="95.410156" xlink:href="#DejaVuSans-30"/>
      </g>
     </g>
    </g>
    <g id="ytick_4">
     <g id="line2d_93">
      <path clip-path="url(#p260129379f)" d="M 144 388.8 
L 1036.8 388.8 
" style="fill:none;stroke:#000000;stroke-linecap:square;stroke-width:0.5;"/>
     </g>
     <g id="line2d_94">
      <g>
       <use style="stroke:#000000;stroke-width:0.8;" x="144" xlink:href="#mea45ff8920" y="388.8"/>
      </g>
     </g>
     <g id="text_14">
      <!-- 1.5 -->
      <g transform="translate(121.096875 392.599219)scale(0.1 -0.1)">
       <use xlink:href="#DejaVuSans-31"/>
       <use x="63.623047" xlink:href="#DejaVuSans-2e"/>
       <use x="95.410156" xlink:href="#DejaVuSans-35"/>
      </g>
     </g>
    </g>
    <g id="ytick_5">
     <g id="line2d_95">
      <path clip-path="url(#p260129379f)" d="M 144 304.8 
L 1036.8 304.8 
" style="fill:none;stroke:#000000;stroke-linecap:square;stroke-width:0.5;"/>
     </g>
     <g id="line2d_96">
      <g>
       <use style="stroke:#000000;stroke-width:0.8;" x="144" xlink:href="#mea45ff8920" y="304.8"/>
      </g>
     </g>
     <g id="text_15">
      <!-- 2.0 -->
      <g transform="translate(121.096875 308.599219)scale(0.1 -0.1)">
       <use xlink:href="#DejaVuSans-32"/>
       <use x="63.623047" xlink:href="#DejaVuSans-2e"/>
       <use x="95.410156" xlink:href="#DejaVuSans-30"/>
      </g>
     </g>
    </g>
    <g id="ytick_6">
     <g id="line2d_97">
      <path clip-path="url(#p260129379f)" d="M 144 220.8 
L 1036.8 220.8 
" style="fill:none;stroke:#000000;stroke-linecap:square;stroke-width:0.5;"/>
     </g>
     <g id="line2d_98">
      <g>
       <use style="stroke:#000000;stroke-width:0.8;" x="144" xlink:href="#mea45ff8920" y="220.8"/>
      </g>
     </g>
     <g id="text_16">
      <!-- 2.5 -->
      <g transform="translate(121.096875 224.599219)scale(0.1 -0.1)">
       <use xlink:href="#DejaVuSans-32"/>
       <use x="63.623047" xlink:href="#DejaVuSans-2e"/>
       <use x="95.410156" xlink:href="#DejaVuSans-35"/>
      </g>
     </g>
    </g>
    <g id="ytick_7">
     <g id="line2d_99">
      <path clip-path="url(#p260129379f)" d="M 144 136.8 
L 1036.8 136.8 
" style="fill:none;stroke:#000000;stroke-linecap:square;stroke-width:0.5;"/>
     </g>
     <g id="line2d_100">
      <g>
       <use style="stroke:#000000;stroke-width:0.8;" x="144" xlink:href="#mea45ff8920" y="136.8"/>
      </g>
     </g>
     <g id="text_17">
      <!-- 3.0 -->
      <g transform="translate(121.096875 140.599219)scale(0.1 -0.1)">
       <use xlink:href="#DejaVuSans-33"/>
       <use x="63.623047" xlink:href="#DejaVuSans-2e"/>
       <use x="95.410156" xlink:href="#DejaVuSans-30"/>
      </g>
     </g>
    </g>
    <g id="ytick_8">
     <g id="line2d_101">
      <path clip-path="url(#p260129379f)" d="M 144 624 
L 1036.8 624 
" style="fill:none;stroke:#000000;stroke-dasharray:2.96,1.28;stroke-dashoffset:0;stroke-width:0.8;"/>
     </g>
     <g id="line2d_102">
      <defs>
       <path d="M 0 0 
L -2 0 
" id="m48e902c151" style="stroke:#000000;stroke-width:0.6;"/>
      </defs>
      <g>
       <use style="stroke:#000000;stroke-width:0.6;" x="144" xlink:href="#m48e902c151" y="624"/>
      </g>
     </g>
    </g>
    <g id="ytick_9">
     <g id="line2d_103">
      <path clip-path="url(#p260129379f)" d="M 144 607.2 
L 1036.8 607.2 
" style="fill:none;stroke:#000000;stroke-dasharray:2.96,1.28;stroke-dashoffset:0;stroke-width:0.8;"/>
     </g>
     <g id="line2d_104">
      <g>
       <use style="stroke:#000000;stroke-width:0.6;" x="144" xlink:href="#m48e902c151" y="607.2"/>
      </g>
     </g>
    </g>
    <g id="ytick_10">
     <g id="line2d_105">
      <path clip-path="url(#p260129379f)" d="M 144 590.4 
L 1036.8 590.4 
" style="fill:none;stroke:#000000;stroke-dasharray:2.96,1.28;stroke-dashoffset:0;stroke-width:0.8;"/>
     </g>
     <g id="line2d_106">
      <g>
       <use style="stroke:#000000;stroke-width:0.6;" x="144" xlink:href="#m48e902c151" y="590.4"/>
      </g>
     </g>
    </g>
    <g id="ytick_11">
     <g id="line2d_107">
      <path clip-path="url(#p260129379f)" d="M 144 573.6 
L 1036.8 573.6 
" style="fill:none;stroke:#000000;stroke-dasharray:2.96,1.28;stroke-dashoffset:0;stroke-width:0.8;"/>
     </g>
     <g id="line2d_108">
      <g>
       <use style="stroke:#000000;stroke-width:0.6;" x="144" xlink:href="#m48e902c151" y="573.6"/>
      </g>
     </g>
    </g>
    <g id="ytick_12">
     <g id="line2d_109">
      <path clip-path="url(#p260129379f)" d="M 144 540 
L 1036.8 540 
" style="fill:none;stroke:#000000;stroke-dasharray:2.96,1.28;stroke-dashoffset:0;stroke-width:0.8;"/>
     </g>
     <g id="line2d_110">
      <g>
       <use style="stroke:#000000;stroke-width:0.6;" x="144" xlink:href="#m48e902c151" y="540"/>
      </g>
     </g>
    </g>
    <g id="ytick_13">
     <g id="line2d_111">
      <path clip-path="url(#p260129379f)" d="M 144 523.2 
L 1036.8 523.2 
" style="fill:none;stroke:#000000;stroke-dasharray:2.96,1.28;stroke-dashoffset:0;stroke-width:0.8;"/>
     </g>
     <g id="line2d_112">
      <g>
       <use style="stroke:#000000;stroke-width:0.6;" x="144" xlink:href="#m48e902c151" y="523.2"/>
      </g>
     </g>
    </g>
    <g id="ytick_14">
     <g id="line2d_113">
      <path clip-path="url(#p260129379f)" d="M 144 506.4 
L 1036.8 506.4 
" style="fill:none;stroke:#000000;stroke-dasharray:2.96,1.28;stroke-dashoffset:0;stroke-width:0.8;"/>
     </g>
     <g id="line2d_114">
      <g>
       <use style="stroke:#000000;stroke-width:0.6;" x="144" xlink:href="#m48e902c151" y="506.4"/>
      </g>
     </g>
    </g>
    <g id="ytick_15">
     <g id="line2d_115">
      <path clip-path="url(#p260129379f)" d="M 144 489.6 
L 1036.8 489.6 
" style="fill:none;stroke:#000000;stroke-dasharray:2.96,1.28;stroke-dashoffset:0;stroke-width:0.8;"/>
     </g>
     <g id="line2d_116">
      <g>
       <use style="stroke:#000000;stroke-width:0.6;" x="144" xlink:href="#m48e902c151" y="489.6"/>
      </g>
     </g>
    </g>
    <g id="ytick_16">
     <g id="line2d_117">
      <path clip-path="url(#p260129379f)" d="M 144 456 
L 1036.8 456 
" style="fill:none;stroke:#000000;stroke-dasharray:2.96,1.28;stroke-dashoffset:0;stroke-width:0.8;"/>
     </g>
     <g id="line2d_118">
      <g>
       <use style="stroke:#000000;stroke-width:0.6;" x="144" xlink:href="#m48e902c151" y="456"/>
      </g>
     </g>
    </g>
    <g id="ytick_17">
     <g id="line2d_119">
      <path clip-path="url(#p260129379f)" d="M 144 439.2 
L 1036.8 439.2 
" style="fill:none;stroke:#000000;stroke-dasharray:2.96,1.28;stroke-dashoffset:0;stroke-width:0.8;"/>
     </g>
     <g id="line2d_120">
      <g>
       <use style="stroke:#000000;stroke-width:0.6;" x="144" xlink:href="#m48e902c151" y="439.2"/>
      </g>
     </g>
    </g>
    <g id="ytick_18">
     <g id="line2d_121">
      <path clip-path="url(#p260129379f)" d="M 144 422.4 
L 1036.8 422.4 
" style="fill:none;stroke:#000000;stroke-dasharray:2.96,1.28;stroke-dashoffset:0;stroke-width:0.8;"/>
     </g>
     <g id="line2d_122">
      <g>
       <use style="stroke:#000000;stroke-width:0.6;" x="144" xlink:href="#m48e902c151" y="422.4"/>
      </g>
     </g>
    </g>
    <g id="ytick_19">
     <g id="line2d_123">
      <path clip-path="url(#p260129379f)" d="M 144 405.6 
L 1036.8 405.6 
" style="fill:none;stroke:#000000;stroke-dasharray:2.96,1.28;stroke-dashoffset:0;stroke-width:0.8;"/>
     </g>
     <g id="line2d_124">
      <g>
       <use style="stroke:#000000;stroke-width:0.6;" x="144" xlink:href="#m48e902c151" y="405.6"/>
      </g>
     </g>
    </g>
    <g id="ytick_20">
     <g id="line2d_125">
      <path clip-path="url(#p260129379f)" d="M 144 372 
L 1036.8 372 
" style="fill:none;stroke:#000000;stroke-dasharray:2.96,1.28;stroke-dashoffset:0;stroke-width:0.8;"/>
     </g>
     <g id="line2d_126">
      <g>
       <use style="stroke:#000000;stroke-width:0.6;" x="144" xlink:href="#m48e902c151" y="372"/>
      </g>
     </g>
    </g>
    <g id="ytick_21">
     <g id="line2d_127">
      <path clip-path="url(#p260129379f)" d="M 144 355.2 
L 1036.8 355.2 
" style="fill:none;stroke:#000000;stroke-dasharray:2.96,1.28;stroke-dashoffset:0;stroke-width:0.8;"/>
     </g>
     <g id="line2d_128">
      <g>
       <use style="stroke:#000000;stroke-width:0.6;" x="144" xlink:href="#m48e902c151" y="355.2"/>
      </g>
     </g>
    </g>
    <g id="ytick_22">
     <g id="line2d_129">
      <path clip-path="url(#p260129379f)" d="M 144 338.4 
L 1036.8 338.4 
" style="fill:none;stroke:#000000;stroke-dasharray:2.96,1.28;stroke-dashoffset:0;stroke-width:0.8;"/>
     </g>
     <g id="line2d_130">
      <g>
       <use style="stroke:#000000;stroke-width:0.6;" x="144" xlink:href="#m48e902c151" y="338.4"/>
      </g>
     </g>
    </g>
    <g id="ytick_23">
     <g id="line2d_131">
      <path clip-path="url(#p260129379f)" d="M 144 321.6 
L 1036.8 321.6 
" style="fill:none;stroke:#000000;stroke-dasharray:2.96,1.28;stroke-dashoffset:0;stroke-width:0.8;"/>
     </g>
     <g id="line2d_132">
      <g>
       <use style="stroke:#000000;stroke-width:0.6;" x="144" xlink:href="#m48e902c151" y="321.6"/>
      </g>
     </g>
    </g>
    <g id="ytick_24">
     <g id="line2d_133">
      <path clip-path="url(#p260129379f)" d="M 144 288 
L 1036.8 288 
" style="fill:none;stroke:#000000;stroke-dasharray:2.96,1.28;stroke-dashoffset:0;stroke-width:0.8;"/>
     </g>
     <g id="line2d_134">
      <g>
       <use style="stroke:#000000;stroke-width:0.6;" x="144" xlink:href="#m48e902c151" y="288"/>
      </g>
     </g>
    </g>
    <g id="ytick_25">
     <g id="line2d_135">
      <path clip-path="url(#p260129379f)" d="M 144 271.2 
L 1036.8 271.2 
" style="fill:none;stroke:#000000;stroke-dasharray:2.96,1.28;stroke-dashoffset:0;stroke-width:0.8;"/>
     </g>
     <g id="line2d_136">
      <g>
       <use style="stroke:#000000;stroke-width:0.6;" x="144" xlink:href="#m48e902c151" y="271.2"/>
      </g>
     </g>
    </g>
    <g id="ytick_26">
     <g id="line2d_137">
      <path clip-path="url(#p260129379f)" d="M 144 254.4 
L 1036.8 254.4 
" style="fill:none;stroke:#000000;stroke-dasharray:2.96,1.28;stroke-dashoffset:0;stroke-width:0.8;"/>
     </g>
     <g id="line2d_138">
      <g>
       <use style="stroke:#000000;stroke-width:0.6;" x="144" xlink:href="#m48e902c151" y="254.4"/>
      </g>
     </g>
    </g>
    <g id="ytick_27">
     <g id="line2d_139">
      <path clip-path="url(#p260129379f)" d="M 144 237.6 
L 1036.8 237.6 
" style="fill:none;stroke:#000000;stroke-dasharray:2.96,1.28;stroke-dashoffset:0;stroke-width:0.8;"/>
     </g>
     <g id="line2d_140">
      <g>
       <use style="stroke:#000000;stroke-width:0.6;" x="144" xlink:href="#m48e902c151" y="237.6"/>
      </g>
     </g>
    </g>
    <g id="ytick_28">
     <g id="line2d_141">
      <path clip-path="url(#p260129379f)" d="M 144 204 
L 1036.8 204 
" style="fill:none;stroke:#000000;stroke-dasharray:2.96,1.28;stroke-dashoffset:0;stroke-width:0.8;"/>
     </g>
     <g id="line2d_142">
      <g>
       <use style="stroke:#000000;stroke-width:0.6;" x="144" xlink:href="#m48e902c151" y="204"/>
      </g>
     </g>
    </g>
    <g id="ytick_29">
     <g id="line2d_143">
      <path clip-path="url(#p260129379f)" d="M 144 187.2 
L 1036.8 187.2 
" style="fill:none;stroke:#000000;stroke-dasharray:2.96,1.28;stroke-dashoffset:0;stroke-width:0.8;"/>
     </g>
     <g id="line2d_144">
      <g>
       <use style="stroke:#000000;stroke-width:0.6;" x="144" xlink:href="#m48e902c151" y="187.2"/>
      </g>
     </g>
    </g>
    <g id="ytick_30">
     <g id="line2d_145">
      <path clip-path="url(#p260129379f)" d="M 144 170.4 
L 1036.8 170.4 
" style="fill:none;stroke:#000000;stroke-dasharray:2.96,1.28;stroke-dashoffset:0;stroke-width:0.8;"/>
     </g>
     <g id="line2d_146">
      <g>
       <use style="stroke:#000000;stroke-width:0.6;" x="144" xlink:href="#m48e902c151" y="170.4"/>
      </g>
     </g>
    </g>
    <g id="ytick_31">
     <g id="line2d_147">
      <path clip-path="url(#p260129379f)" d="M 144 153.6 
L 1036.8 153.6 
" style="fill:none;stroke:#000000;stroke-dasharray:2.96,1.28;stroke-dashoffset:0;stroke-width:0.8;"/>
     </g>
     <g id="line2d_148">
      <g>
       <use style="stroke:#000000;stroke-width:0.6;" x="144" xlink:href="#m48e902c151" y="153.6"/>
      </g>
     </g>
    </g>
    <g id="ytick_32">
     <g id="line2d_149">
      <path clip-path="url(#p260129379f)" d="M 144 120 
L 1036.8 120 
" style="fill:none;stroke:#000000;stroke-dasharray:2.96,1.28;stroke-dashoffset:0;stroke-width:0.8;"/>
     </g>
     <g id="line2d_150">
      <g>
       <use style="stroke:#000000;stroke-width:0.6;" x="144" xlink:href="#m48e902c151" y="120"/>
      </g>
     </g>
    </g>
    <g id="ytick_33">
     <g id="line2d_151">
      <path clip-path="url(#p260129379f)" d="M 144 103.2 
L 1036.8 103.2 
" style="fill:none;stroke:#000000;stroke-dasharray:2.96,1.28;stroke-dashoffset:0;stroke-width:0.8;"/>
     </g>
     <g id="line2d_152">
      <g>
       <use style="stroke:#000000;stroke-width:0.6;" x="144" xlink:href="#m48e902c151" y="103.2"/>
      </g>
     </g>
    </g>
    <g id="text_18">
     <!-- Voltage, V -->
     <g transform="translate(113.977344 401.632031)rotate(-90)scale(0.15 -0.15)">
      <defs>
       <path d="M 1831 0 
L 50 4666 
L 709 4666 
L 2188 738 
L 3669 4666 
L 4325 4666 
L 2547 0 
L 1831 0 
z
" id="DejaVuSans-56" transform="scale(0.015625)"/>
       <path d="M 1959 3097 
Q 1497 3097 1228 2736 
Q 959 2375 959 1747 
Q 959 1119 1226 758 
Q 1494 397 1959 397 
Q 2419 397 2687 759 
Q 2956 1122 2956 1747 
Q 2956 2369 2687 2733 
Q 2419 3097 1959 3097 
z
M 1959 3584 
Q 2709 3584 3137 3096 
Q 3566 2609 3566 1747 
Q 3566 888 3137 398 
Q 2709 -91 1959 -91 
Q 1206 -91 779 398 
Q 353 888 353 1747 
Q 353 2609 779 3096 
Q 1206 3584 1959 3584 
z
" id="DejaVuSans-6f" transform="scale(0.015625)"/>
       <path d="M 603 4863 
L 1178 4863 
L 1178 0 
L 603 0 
L 603 4863 
z
" id="DejaVuSans-6c" transform="scale(0.015625)"/>
       <path d="M 1172 4494 
L 1172 3500 
L 2356 3500 
L 2356 3053 
L 1172 3053 
L 1172 1153 
Q 1172 725 1289 603 
Q 1406 481 1766 481 
L 2356 481 
L 2356 0 
L 1766 0 
Q 1100 0 847 248 
Q 594 497 594 1153 
L 594 3053 
L 172 3053 
L 172 3500 
L 594 3500 
L 594 4494 
L 1172 4494 
z
" id="DejaVuSans-74" transform="scale(0.015625)"/>
       <path d="M 2194 1759 
Q 1497 1759 1228 1600 
Q 959 1441 959 1056 
Q 959 750 1161 570 
Q 1363 391 1709 391 
Q 2188 391 2477 730 
Q 2766 1069 2766 1631 
L 2766 1759 
L 2194 1759 
z
M 3341 1997 
L 3341 0 
L 2766 0 
L 2766 531 
Q 2569 213 2275 61 
Q 1981 -91 1556 -91 
Q 1019 -91 701 211 
Q 384 513 384 1019 
Q 384 1609 779 1909 
Q 1175 2209 1959 2209 
L 2766 2209 
L 2766 2266 
Q 2766 2663 2505 2880 
Q 2244 3097 1772 3097 
Q 1472 3097 1187 3025 
Q 903 2953 641 2809 
L 641 3341 
Q 956 3463 1253 3523 
Q 1550 3584 1831 3584 
Q 2591 3584 2966 3190 
Q 3341 2797 3341 1997 
z
" id="DejaVuSans-61" transform="scale(0.015625)"/>
       <path d="M 2906 1791 
Q 2906 2416 2648 2759 
Q 2391 3103 1925 3103 
Q 1463 3103 1205 2759 
Q 947 2416 947 1791 
Q 947 1169 1205 825 
Q 1463 481 1925 481 
Q 2391 481 2648 825 
Q 2906 1169 2906 1791 
z
M 3481 434 
Q 3481 -459 3084 -895 
Q 2688 -1331 1869 -1331 
Q 1566 -1331 1297 -1286 
Q 1028 -1241 775 -1147 
L 775 -588 
Q 1028 -725 1275 -790 
Q 1522 -856 1778 -856 
Q 2344 -856 2625 -561 
Q 2906 -266 2906 331 
L 2906 616 
Q 2728 306 2450 153 
Q 2172 0 1784 0 
Q 1141 0 747 490 
Q 353 981 353 1791 
Q 353 2603 747 3093 
Q 1141 3584 1784 3584 
Q 2172 3584 2450 3431 
Q 2728 3278 2906 2969 
L 2906 3500 
L 3481 3500 
L 3481 434 
z
" id="DejaVuSans-67" transform="scale(0.015625)"/>
      </defs>
      <use xlink:href="#DejaVuSans-56"/>
      <use x="60.658203" xlink:href="#DejaVuSans-6f"/>
      <use x="121.839844" xlink:href="#DejaVuSans-6c"/>
      <use x="149.623047" xlink:href="#DejaVuSans-74"/>
      <use x="188.832031" xlink:href="#DejaVuSans-61"/>
      <use x="250.111328" xlink:href="#DejaVuSans-67"/>
      <use x="313.587891" xlink:href="#DejaVuSans-65"/>
      <use x="375.111328" xlink:href="#DejaVuSans-2c"/>
      <use x="406.898438" xlink:href="#DejaVuSans-20"/>
      <use x="438.685547" xlink:href="#DejaVuSans-56"/>
     </g>
    </g>
   </g>
   <g id="line2d_153">
    <path clip-path="url(#p260129379f)" d="M 144 634.303125 
L 145.39058 625.640625 
L 146.08587 625.640625 
L 146.78116 619.14375 
L 147.47645 616.978125 
L 148.171739 612.646875 
L 149.562319 608.315625 
L 150.257609 601.81875 
L 150.952899 597.4875 
L 151.648189 595.321875 
L 152.343479 590.990625 
L 153.734059 586.659375 
L 155.124638 577.996875 
L 156.515218 573.665625 
L 157.905798 565.003125 
L 159.296378 560.671875 
L 159.991668 556.340625 
L 161.382248 552.009375 
L 162.772827 543.346875 
L 163.468117 543.346875 
L 164.163407 539.015625 
L 165.553987 534.684375 
L 166.249277 530.353125 
L 166.944567 528.1875 
L 167.639857 523.85625 
L 168.335147 523.85625 
L 169.030436 519.525 
L 170.421016 515.19375 
L 171.116306 510.8625 
L 171.811596 508.696875 
L 172.506886 508.696875 
L 173.897466 500.034375 
L 175.288046 495.703125 
L 175.983335 491.371875 
L 176.678625 491.371875 
L 178.764495 484.875 
L 179.459785 480.54375 
L 180.155075 478.378125 
L 180.850365 474.046875 
L 181.545655 474.046875 
L 182.240945 469.715625 
L 183.631524 469.715625 
L 185.022104 461.053125 
L 186.412684 456.721875 
L 187.107974 456.721875 
L 187.803264 454.55625 
L 189.193844 445.89375 
L 189.889133 443.728125 
L 190.584423 443.728125 
L 191.279713 439.396875 
L 191.975003 439.396875 
L 193.365583 435.065625 
L 194.060873 435.065625 
L 194.756163 430.734375 
L 198.927902 417.740625 
L 199.623192 417.740625 
L 200.318482 413.409375 
L 201.013772 413.409375 
L 201.709062 409.078125 
L 202.404352 409.078125 
L 203.099642 404.746875 
L 203.794931 404.746875 
L 205.185511 400.415625 
L 205.880801 400.415625 
L 206.576091 396.084375 
L 207.271381 396.084375 
L 207.966671 391.753125 
L 208.661961 391.753125 
L 209.357251 387.421875 
L 210.052541 387.421875 
L 211.44312 383.090625 
L 212.13841 383.090625 
L 216.31015 370.096875 
L 217.700729 370.096875 
L 218.396019 365.765625 
L 219.091309 365.765625 
L 220.481889 361.434375 
L 221.177179 361.434375 
L 221.872469 357.103125 
L 222.567759 357.103125 
L 225.348918 348.440625 
L 226.044208 348.440625 
L 226.739498 346.275 
L 227.434788 346.275 
L 229.520658 339.778125 
L 230.215948 339.778125 
L 230.911238 335.446875 
L 232.301817 335.446875 
L 235.082977 326.784375 
L 235.778267 326.784375 
L 236.473557 324.61875 
L 237.168847 326.784375 
L 237.864137 322.453125 
L 238.559426 322.453125 
L 239.254716 320.2875 
L 239.950006 320.2875 
L 240.645296 315.95625 
L 242.035876 315.95625 
L 242.731166 313.790625 
L 243.426456 313.790625 
L 244.121746 309.459375 
L 245.512325 309.459375 
L 246.902905 305.128125 
L 247.598195 305.128125 
L 248.988775 300.796875 
L 249.684065 300.796875 
L 250.379355 298.63125 
L 251.074645 298.63125 
L 252.465224 294.3 
L 253.855804 294.3 
L 254.551094 292.134375 
L 255.246384 292.134375 
L 256.636964 287.803125 
L 258.027544 287.803125 
L 258.722834 285.6375 
L 259.418123 285.6375 
L 261.503993 279.140625 
L 262.199283 281.30625 
L 262.894573 276.975 
L 263.589863 279.140625 
L 266.371022 270.478125 
L 269.152182 270.478125 
L 270.542762 266.146875 
L 271.933342 266.146875 
L 272.628632 263.98125 
L 273.323921 263.98125 
L 274.019211 261.815625 
L 275.409791 261.815625 
L 277.495661 255.31875 
L 278.190951 255.31875 
L 278.886241 253.153125 
L 280.27682 253.153125 
L 280.97211 250.9875 
L 281.6674 250.9875 
L 282.36269 248.821875 
L 284.44856 248.821875 
L 285.14385 246.65625 
L 285.83914 246.65625 
L 286.53443 244.490625 
L 287.229719 244.490625 
L 287.925009 242.325 
L 288.620299 242.325 
L 289.315589 240.159375 
L 291.401459 240.159375 
L 292.096749 237.99375 
L 292.792039 237.99375 
L 293.487329 235.828125 
L 294.182618 235.828125 
L 295.573198 231.496875 
L 296.268488 233.6625 
L 296.963778 233.6625 
L 297.659068 231.496875 
L 298.354358 231.496875 
L 299.049648 229.33125 
L 299.744938 229.33125 
L 300.440228 227.165625 
L 303.916677 227.165625 
L 305.307257 222.834375 
L 306.697837 222.834375 
L 308.088416 218.503125 
L 310.869576 218.503125 
L 311.564866 216.3375 
L 312.260156 216.3375 
L 312.955446 214.171875 
L 315.736605 214.171875 
L 316.431895 212.00625 
L 317.127185 214.171875 
L 317.822475 212.00625 
L 318.517765 212.00625 
L 319.213055 209.840625 
L 319.908345 209.840625 
L 320.603635 207.675 
L 321.994214 207.675 
L 322.689504 205.509375 
L 324.775374 205.509375 
L 325.470664 203.34375 
L 326.165954 203.34375 
L 326.861244 201.178125 
L 328.947113 201.178125 
L 329.642403 199.0125 
L 330.337693 201.178125 
L 331.728273 196.846875 
L 335.204723 196.846875 
L 335.900012 194.68125 
L 336.595302 196.846875 
L 337.290592 194.68125 
L 337.985882 194.68125 
L 338.681172 192.515625 
L 340.767042 192.515625 
L 341.462332 190.35 
L 342.852911 190.35 
L 343.548201 188.184375 
L 346.329361 188.184375 
L 347.024651 186.01875 
L 349.110521 186.01875 
L 349.80581 183.853125 
L 352.58697 183.853125 
L 353.28226 181.6875 
L 353.97755 181.6875 
L 354.67284 183.853125 
L 356.06342 179.521875 
L 360.235159 179.521875 
L 360.930449 177.35625 
L 361.625739 177.35625 
L 362.321029 175.190625 
L 363.016319 177.35625 
L 363.711608 175.190625 
L 366.492768 175.190625 
L 367.188058 173.025 
L 368.578638 173.025 
L 369.273928 170.859375 
L 369.969218 173.025 
L 370.664507 170.859375 
L 375.531537 170.859375 
L 376.226827 168.69375 
L 376.922117 168.69375 
L 377.617407 166.528125 
L 382.484436 166.528125 
L 383.179726 164.3625 
L 383.875016 166.528125 
L 384.570306 164.3625 
L 386.656175 164.3625 
L 387.351465 160.03125 
L 388.046755 162.196875 
L 390.132625 162.196875 
L 390.827915 160.03125 
L 394.999654 160.03125 
L 395.694944 157.865625 
L 396.390234 160.03125 
L 397.085524 157.865625 
L 398.476104 157.865625 
L 399.171393 160.03125 
L 399.866683 157.865625 
L 400.561973 157.865625 
L 401.257263 155.7 
L 403.343133 155.7 
L 404.038423 157.865625 
L 404.733713 155.7 
L 406.124292 155.7 
L 406.819582 153.534375 
L 407.514872 155.7 
L 408.210162 155.7 
L 408.905452 153.534375 
L 409.600742 153.534375 
L 410.296032 151.36875 
L 410.991322 153.534375 
L 411.686612 151.36875 
L 412.381902 153.534375 
L 413.077191 151.36875 
L 415.163061 151.36875 
L 415.858351 149.203125 
L 416.553641 149.203125 
L 417.248931 151.36875 
L 417.944221 149.203125 
L 422.81125 149.203125 
L 423.50654 147.0375 
L 424.20183 149.203125 
L 424.89712 147.0375 
L 425.59241 147.0375 
L 426.2877 149.203125 
L 427.678279 144.871875 
L 428.373569 149.203125 
L 429.068859 144.871875 
L 435.326468 144.871875 
L 436.021758 142.70625 
L 436.717048 144.871875 
L 437.412338 142.70625 
L 439.498208 142.70625 
L 440.193498 144.871875 
L 440.888787 142.70625 
L 442.279367 142.70625 
L 442.974657 140.540625 
L 443.669947 140.540625 
L 444.365237 142.70625 
L 445.060527 140.540625 
L 445.755817 142.70625 
L 446.451107 140.540625 
L 448.536976 140.540625 
L 449.232266 138.375 
L 449.927556 140.540625 
L 451.318136 140.540625 
L 452.013426 138.375 
L 461.747484 138.375 
L 462.442774 134.04375 
L 463.138064 136.209375 
L 468.005094 136.209375 
L 468.700383 134.04375 
L 469.395673 136.209375 
L 470.090963 134.04375 
L 470.786253 134.04375 
L 471.481543 136.209375 
L 472.176833 136.209375 
L 472.872123 134.04375 
L 474.262703 134.04375 
L 474.957993 129.7125 
L 475.653282 136.209375 
L 476.348572 131.878125 
L 477.043862 134.04375 
L 479.129732 134.04375 
L 479.825022 131.878125 
L 480.520312 134.04375 
L 481.215602 131.878125 
L 483.301471 131.878125 
L 483.996761 134.04375 
L 484.692051 131.878125 
L 486.777921 131.878125 
L 487.473211 129.7125 
L 488.168501 131.878125 
L 488.863791 129.7125 
L 489.55908 131.878125 
L 491.64495 131.878125 
L 492.34024 129.7125 
L 493.03553 129.7125 
L 493.73082 131.878125 
L 494.42611 129.7125 
L 495.1214 131.878125 
L 495.81669 127.546875 
L 496.511979 131.878125 
L 497.207269 129.7125 
L 497.902559 131.878125 
L 498.597849 127.546875 
L 499.293139 129.7125 
L 501.379009 129.7125 
L 502.074299 127.546875 
L 502.769589 127.546875 
L 503.464878 129.7125 
L 504.160168 127.546875 
L 504.855458 129.7125 
L 505.550748 129.7125 
L 506.246038 127.546875 
L 506.941328 129.7125 
L 507.636618 127.546875 
L 514.589517 127.546875 
L 515.284807 129.7125 
L 515.980097 127.546875 
L 516.675387 127.546875 
L 517.370676 125.38125 
L 518.065966 127.546875 
L 518.761256 127.546875 
L 519.456546 125.38125 
L 520.151836 127.546875 
L 520.847126 127.546875 
L 521.542416 125.38125 
L 522.237706 125.38125 
L 522.932996 123.215625 
L 523.628286 127.546875 
L 524.323575 125.38125 
L 525.018865 127.546875 
L 525.714155 125.38125 
L 527.800025 125.38125 
L 528.495315 123.215625 
L 529.190605 125.38125 
L 531.971764 125.38125 
L 532.667054 123.215625 
L 533.362344 125.38125 
L 534.057634 125.38125 
L 534.752924 123.215625 
L 543.096403 123.215625 
L 543.791693 125.38125 
L 545.182272 121.05 
L 545.877562 123.215625 
L 552.135171 123.215625 
L 552.830461 121.05 
L 553.525751 123.215625 
L 554.221041 123.215625 
L 554.916331 121.05 
L 556.306911 121.05 
L 557.002201 123.215625 
L 557.697491 121.05 
L 558.392781 123.215625 
L 559.08807 121.05 
L 559.78336 121.05 
L 560.47865 123.215625 
L 561.86923 123.215625 
L 562.56452 121.05 
L 563.9551 121.05 
L 564.65039 123.215625 
L 565.34568 121.05 
L 566.040969 121.05 
L 566.736259 123.215625 
L 568.126839 123.215625 
L 568.822129 118.884375 
L 569.517419 121.05 
L 574.384448 121.05 
L 575.079738 123.215625 
L 575.775028 118.884375 
L 576.470318 121.05 
L 577.165608 118.884375 
L 577.860898 121.05 
L 578.556188 121.05 
L 579.251478 118.884375 
L 581.337347 118.884375 
L 582.032637 121.05 
L 582.727927 118.884375 
L 586.204377 118.884375 
L 586.899666 116.71875 
L 587.594956 121.05 
L 588.290246 127.546875 
L 589.680826 131.878125 
L 590.376116 138.375 
L 591.071406 138.375 
L 592.461986 147.0375 
L 593.157276 147.0375 
L 593.852565 153.534375 
L 594.547855 155.7 
L 595.243145 160.03125 
L 596.633725 164.3625 
L 597.329015 168.69375 
L 598.719595 173.025 
L 600.110175 181.6875 
L 601.500754 186.01875 
L 602.196044 190.35 
L 602.891334 192.515625 
L 603.586624 196.846875 
L 604.281914 196.846875 
L 605.672494 205.509375 
L 606.367784 207.675 
L 607.063074 212.00625 
L 607.758364 212.00625 
L 608.453653 216.3375 
L 609.844233 220.66875 
L 610.539523 225 
L 611.234813 225 
L 611.930103 231.496875 
L 612.625393 231.496875 
L 613.320683 233.6625 
L 614.015973 233.6625 
L 614.711263 240.159375 
L 616.101842 244.490625 
L 616.797132 248.821875 
L 618.883002 255.31875 
L 619.578292 259.65 
L 620.273582 259.65 
L 620.968872 261.815625 
L 621.664162 266.146875 
L 622.359451 268.3125 
L 623.054741 268.3125 
L 623.750031 272.64375 
L 626.531191 281.30625 
L 627.226481 285.6375 
L 627.921771 285.6375 
L 629.31235 289.96875 
L 630.00764 294.3 
L 630.70293 294.3 
L 631.39822 296.465625 
L 632.09351 302.9625 
L 632.7888 302.9625 
L 633.48409 305.128125 
L 634.17938 305.128125 
L 634.87467 307.29375 
L 635.56996 311.625 
L 636.265249 313.790625 
L 636.960539 313.790625 
L 637.655829 315.95625 
L 638.351119 320.2875 
L 639.046409 322.453125 
L 639.741699 322.453125 
L 640.436989 326.784375 
L 641.132279 326.784375 
L 643.218148 333.28125 
L 643.913438 337.6125 
L 645.304018 337.6125 
L 652.952207 361.434375 
L 653.647497 361.434375 
L 654.342787 363.6 
L 655.038077 363.6 
L 655.733367 367.93125 
L 656.428657 370.096875 
L 657.123946 370.096875 
L 659.905106 378.759375 
L 660.600396 378.759375 
L 663.381556 387.421875 
L 664.772135 387.421875 
L 665.467425 391.753125 
L 667.553295 398.25 
L 668.248585 398.25 
L 668.943875 400.415625 
L 669.639165 400.415625 
L 670.334455 402.58125 
L 671.029744 402.58125 
L 672.420324 406.9125 
L 673.115614 406.9125 
L 673.810904 411.24375 
L 674.506194 411.24375 
L 675.201484 413.409375 
L 675.896774 413.409375 
L 676.592064 415.575 
L 677.287354 415.575 
L 680.068513 424.2375 
L 680.763803 424.2375 
L 681.459093 426.403125 
L 682.154383 426.403125 
L 683.544963 430.734375 
L 684.240253 430.734375 
L 684.935542 432.9 
L 685.630832 432.9 
L 686.326122 435.065625 
L 687.021412 435.065625 
L 687.716702 439.396875 
L 689.107282 439.396875 
L 690.497862 443.728125 
L 691.193152 443.728125 
L 692.583731 448.059375 
L 693.279021 445.89375 
L 694.669601 450.225 
L 695.364891 450.225 
L 696.060181 454.55625 
L 696.755471 454.55625 
L 697.450761 456.721875 
L 699.53663 456.721875 
L 700.23192 461.053125 
L 701.6225 461.053125 
L 703.01308 465.384375 
L 703.70837 463.21875 
L 704.40366 467.55 
L 706.489529 467.55 
L 707.184819 471.88125 
L 707.880109 471.88125 
L 708.575399 474.046875 
L 709.965979 474.046875 
L 711.356559 478.378125 
L 712.051849 478.378125 
L 712.747138 480.54375 
L 713.442428 480.54375 
L 714.137718 482.709375 
L 714.833008 482.709375 
L 715.528298 484.875 
L 716.918878 484.875 
L 717.614168 487.040625 
L 718.309458 487.040625 
L 719.004748 489.20625 
L 719.700037 489.20625 
L 720.395327 487.040625 
L 721.090617 489.20625 
L 721.785907 493.5375 
L 723.176487 493.5375 
L 723.871777 495.703125 
L 725.262357 495.703125 
L 725.957647 497.86875 
L 726.652936 497.86875 
L 727.348226 500.034375 
L 728.043516 500.034375 
L 728.738806 502.2 
L 730.824676 502.2 
L 731.519966 504.365625 
L 732.215256 504.365625 
L 732.910546 508.696875 
L 735.691705 508.696875 
L 736.386995 510.8625 
L 737.082285 510.8625 
L 737.777575 513.028125 
L 738.472865 513.028125 
L 739.168155 515.19375 
L 739.863445 515.19375 
L 740.558734 517.359375 
L 743.339894 517.359375 
L 744.035184 521.690625 
L 744.730474 519.525 
L 745.425764 521.690625 
L 746.816344 521.690625 
L 747.511633 523.85625 
L 748.902213 523.85625 
L 749.597503 526.021875 
L 750.988083 526.021875 
L 751.683373 528.1875 
L 752.378663 528.1875 
L 753.073953 530.353125 
L 755.159822 530.353125 
L 755.855112 532.51875 
L 757.245692 532.51875 
L 757.940982 534.684375 
L 759.331562 534.684375 
L 760.026852 536.85 
L 761.417431 536.85 
L 762.112721 539.015625 
L 763.503301 539.015625 
L 764.198591 541.18125 
L 764.893881 541.18125 
L 765.589171 543.346875 
L 769.06562 543.346875 
L 770.4562 547.678125 
L 771.15149 547.678125 
L 771.84678 545.5125 
L 772.54207 547.678125 
L 774.62794 547.678125 
L 775.323229 549.84375 
L 776.713809 549.84375 
L 777.409099 552.009375 
L 780.190259 552.009375 
L 780.885549 554.175 
L 781.580839 554.175 
L 782.276128 556.340625 
L 782.971418 554.175 
L 783.666708 556.340625 
L 785.057288 556.340625 
L 785.752578 558.50625 
L 787.838448 558.50625 
L 789.229027 562.8375 
L 789.924317 560.671875 
L 790.619607 562.8375 
L 791.314897 562.8375 
L 792.010187 565.003125 
L 792.705477 562.8375 
L 793.400767 562.8375 
L 794.096057 565.003125 
L 794.791347 565.003125 
L 795.486637 562.8375 
L 796.181926 565.003125 
L 797.572506 565.003125 
L 798.267796 567.16875 
L 798.963086 565.003125 
L 799.658376 569.334375 
L 803.830115 569.334375 
L 804.525405 571.5 
L 806.611275 571.5 
L 807.306565 573.665625 
L 808.001855 571.5 
L 809.392435 575.83125 
L 810.087724 575.83125 
L 810.783014 573.665625 
L 811.478304 575.83125 
L 813.564174 575.83125 
L 814.259464 577.996875 
L 814.954754 575.83125 
L 815.650044 577.996875 
L 817.040623 577.996875 
L 817.735913 580.1625 
L 818.431203 577.996875 
L 819.126493 580.1625 
L 821.907653 580.1625 
L 822.602943 582.328125 
L 823.993522 582.328125 
L 824.688812 584.49375 
L 827.469972 584.49375 
L 828.165262 586.659375 
L 828.860552 584.49375 
L 829.555842 586.659375 
L 830.251132 584.49375 
L 830.946422 586.659375 
L 833.727581 586.659375 
L 834.422871 588.825 
L 835.118161 588.825 
L 835.813451 586.659375 
L 837.204031 590.990625 
L 837.899321 588.825 
L 838.59461 590.990625 
L 839.2899 588.825 
L 839.98519 588.825 
L 840.68048 590.990625 
L 842.07106 590.990625 
L 842.76635 593.15625 
L 843.46164 590.990625 
L 844.15693 593.15625 
L 846.938089 593.15625 
L 847.633379 595.321875 
L 848.328669 593.15625 
L 849.023959 593.15625 
L 849.719249 595.321875 
L 853.195698 595.321875 
L 853.890988 597.4875 
L 854.586278 597.4875 
L 855.281568 595.321875 
L 855.976858 597.4875 
L 858.758018 597.4875 
L 859.453307 595.321875 
L 860.148597 597.4875 
L 860.843887 597.4875 
L 861.539177 599.653125 
L 862.929757 599.653125 
L 863.625047 601.81875 
L 864.320337 599.653125 
L 865.015627 599.653125 
L 865.710917 601.81875 
L 866.406206 599.653125 
L 867.101496 599.653125 
L 867.796786 601.81875 
L 868.492076 601.81875 
L 869.187366 603.984375 
L 869.882656 601.81875 
L 870.577946 601.81875 
L 871.273236 603.984375 
L 875.444975 603.984375 
L 876.140265 606.15 
L 876.835555 603.984375 
L 877.530845 606.15 
L 878.921425 606.15 
L 879.616715 603.984375 
L 880.312004 603.984375 
L 881.702584 608.315625 
L 882.397874 603.984375 
L 883.788454 608.315625 
L 885.874324 608.315625 
L 886.569614 606.15 
L 887.264903 608.315625 
L 891.436643 608.315625 
L 892.131933 610.48125 
L 894.913092 610.48125 
L 895.608382 612.646875 
L 896.303672 612.646875 
L 896.998962 610.48125 
L 897.694252 612.646875 
L 898.389542 610.48125 
L 899.084832 610.48125 
L 899.780122 612.646875 
L 900.475412 610.48125 
L 901.865991 610.48125 
L 902.561281 612.646875 
L 905.342441 612.646875 
L 906.037731 614.8125 
L 906.733021 612.646875 
L 907.428311 614.8125 
L 908.1236 612.646875 
L 908.81889 614.8125 
L 909.51418 612.646875 
L 910.20947 614.8125 
L 910.90476 612.646875 
L 911.60005 614.8125 
L 914.38121 614.8125 
L 915.076499 616.978125 
L 915.771789 614.8125 
L 916.467079 614.8125 
L 917.162369 616.978125 
L 925.505848 616.978125 
L 926.201138 619.14375 
L 928.287008 619.14375 
L 928.982297 616.978125 
L 929.677587 619.14375 
L 931.068167 619.14375 
L 931.763457 616.978125 
L 932.458747 616.978125 
L 933.154037 619.14375 
L 938.021066 619.14375 
L 938.716356 621.309375 
L 944.973965 621.309375 
L 945.669255 623.475 
L 946.364545 621.309375 
L 948.450415 621.309375 
L 949.145705 623.475 
L 949.840994 621.309375 
L 950.536284 623.475 
L 951.231574 621.309375 
L 955.403314 621.309375 
L 956.098604 623.475 
L 958.184473 623.475 
L 958.879763 625.640625 
L 959.575053 623.475 
L 961.660923 623.475 
L 962.356213 621.309375 
L 963.051503 625.640625 
L 963.746792 623.475 
L 964.442082 625.640625 
L 965.137372 623.475 
L 966.527952 623.475 
L 967.223242 625.640625 
L 969.309112 625.640625 
L 970.004402 623.475 
L 970.699691 627.80625 
L 971.394981 623.475 
L 972.090271 625.640625 
L 972.785561 625.640625 
L 973.480851 623.475 
L 974.176141 625.640625 
L 981.12904 625.640625 
L 981.82433 627.80625 
L 982.51962 627.80625 
L 983.21491 625.640625 
L 983.9102 627.80625 
L 984.605489 625.640625 
L 985.300779 627.80625 
L 987.386649 627.80625 
L 988.081939 625.640625 
L 990.167809 625.640625 
L 990.863099 627.80625 
L 993.644258 627.80625 
L 994.339548 629.971875 
L 994.339548 629.971875 
" style="fill:none;stroke:#ff0000;stroke-linecap:square;stroke-width:1.5;"/>
    <defs>
     <path d="M 0 3 
C 0.795609 3 1.55874 2.683901 2.12132 2.12132 
C 2.683901 1.55874 3 0.795609 3 0 
C 3 -0.795609 2.683901 -1.55874 2.12132 -2.12132 
C 1.55874 -2.683901 0.795609 -3 0 -3 
C -0.795609 -3 -1.55874 -2.683901 -2.12132 -2.12132 
C -2.683901 -1.55874 -3 -0.795609 -3 0 
C -3 0.795609 -2.683901 1.55874 -2.12132 2.12132 
C -1.55874 2.683901 -0.795609 3 0 3 
z
" id="m61f167e41f" style="stroke:#ff0000;"/>
    </defs>
    <g clip-path="url(#p260129379f)">
     <use style="fill:#ff0000;stroke:#ff0000;" x="144" xlink:href="#m61f167e41f" y="634.303125"/>
     <use style="fill:#ff0000;stroke:#ff0000;" x="157.905798" xlink:href="#m61f167e41f" y="565.003125"/>
     <use style="fill:#ff0000;stroke:#ff0000;" x="171.811596" xlink:href="#m61f167e41f" y="508.696875"/>
     <use style="fill:#ff0000;stroke:#ff0000;" x="185.717394" xlink:href="#m61f167e41f" y="458.8875"/>
     <use style="fill:#ff0000;stroke:#ff0000;" x="199.623192" xlink:href="#m61f167e41f" y="417.740625"/>
     <use style="fill:#ff0000;stroke:#ff0000;" x="213.52899" xlink:href="#m61f167e41f" y="378.759375"/>
     <use style="fill:#ff0000;stroke:#ff0000;" x="227.434788" xlink:href="#m61f167e41f" y="346.275"/>
     <use style="fill:#ff0000;stroke:#ff0000;" x="241.340586" xlink:href="#m61f167e41f" y="315.95625"/>
     <use style="fill:#ff0000;stroke:#ff0000;" x="255.246384" xlink:href="#m61f167e41f" y="292.134375"/>
     <use style="fill:#ff0000;stroke:#ff0000;" x="269.152182" xlink:href="#m61f167e41f" y="270.478125"/>
     <use style="fill:#ff0000;stroke:#ff0000;" x="283.05798" xlink:href="#m61f167e41f" y="248.821875"/>
     <use style="fill:#ff0000;stroke:#ff0000;" x="296.963778" xlink:href="#m61f167e41f" y="233.6625"/>
     <use style="fill:#ff0000;stroke:#ff0000;" x="310.869576" xlink:href="#m61f167e41f" y="218.503125"/>
     <use style="fill:#ff0000;stroke:#ff0000;" x="324.775374" xlink:href="#m61f167e41f" y="205.509375"/>
     <use style="fill:#ff0000;stroke:#ff0000;" x="338.681172" xlink:href="#m61f167e41f" y="192.515625"/>
     <use style="fill:#ff0000;stroke:#ff0000;" x="352.58697" xlink:href="#m61f167e41f" y="183.853125"/>
     <use style="fill:#ff0000;stroke:#ff0000;" x="366.492768" xlink:href="#m61f167e41f" y="175.190625"/>
     <use style="fill:#ff0000;stroke:#ff0000;" x="380.398566" xlink:href="#m61f167e41f" y="166.528125"/>
     <use style="fill:#ff0000;stroke:#ff0000;" x="394.304364" xlink:href="#m61f167e41f" y="160.03125"/>
     <use style="fill:#ff0000;stroke:#ff0000;" x="408.210162" xlink:href="#m61f167e41f" y="155.7"/>
     <use style="fill:#ff0000;stroke:#ff0000;" x="422.11596" xlink:href="#m61f167e41f" y="149.203125"/>
     <use style="fill:#ff0000;stroke:#ff0000;" x="436.021758" xlink:href="#m61f167e41f" y="142.70625"/>
     <use style="fill:#ff0000;stroke:#ff0000;" x="449.927556" xlink:href="#m61f167e41f" y="140.540625"/>
     <use style="fill:#ff0000;stroke:#ff0000;" x="463.833354" xlink:href="#m61f167e41f" y="136.209375"/>
     <use style="fill:#ff0000;stroke:#ff0000;" x="477.739152" xlink:href="#m61f167e41f" y="134.04375"/>
     <use style="fill:#ff0000;stroke:#ff0000;" x="491.64495" xlink:href="#m61f167e41f" y="131.878125"/>
     <use style="fill:#ff0000;stroke:#ff0000;" x="505.550748" xlink:href="#m61f167e41f" y="129.7125"/>
     <use style="fill:#ff0000;stroke:#ff0000;" x="519.456546" xlink:href="#m61f167e41f" y="125.38125"/>
     <use style="fill:#ff0000;stroke:#ff0000;" x="533.362344" xlink:href="#m61f167e41f" y="125.38125"/>
     <use style="fill:#ff0000;stroke:#ff0000;" x="547.268142" xlink:href="#m61f167e41f" y="123.215625"/>
     <use style="fill:#ff0000;stroke:#ff0000;" x="561.17394" xlink:href="#m61f167e41f" y="123.215625"/>
     <use style="fill:#ff0000;stroke:#ff0000;" x="575.079738" xlink:href="#m61f167e41f" y="123.215625"/>
     <use style="fill:#ff0000;stroke:#ff0000;" x="588.985536" xlink:href="#m61f167e41f" y="129.7125"/>
     <use style="fill:#ff0000;stroke:#ff0000;" x="602.891334" xlink:href="#m61f167e41f" y="192.515625"/>
     <use style="fill:#ff0000;stroke:#ff0000;" x="616.797132" xlink:href="#m61f167e41f" y="248.821875"/>
     <use style="fill:#ff0000;stroke:#ff0000;" x="630.70293" xlink:href="#m61f167e41f" y="294.3"/>
     <use style="fill:#ff0000;stroke:#ff0000;" x="644.608728" xlink:href="#m61f167e41f" y="337.6125"/>
     <use style="fill:#ff0000;stroke:#ff0000;" x="658.514526" xlink:href="#m61f167e41f" y="374.428125"/>
     <use style="fill:#ff0000;stroke:#ff0000;" x="672.420324" xlink:href="#m61f167e41f" y="406.9125"/>
     <use style="fill:#ff0000;stroke:#ff0000;" x="686.326122" xlink:href="#m61f167e41f" y="435.065625"/>
     <use style="fill:#ff0000;stroke:#ff0000;" x="700.23192" xlink:href="#m61f167e41f" y="461.053125"/>
     <use style="fill:#ff0000;stroke:#ff0000;" x="714.137718" xlink:href="#m61f167e41f" y="482.709375"/>
     <use style="fill:#ff0000;stroke:#ff0000;" x="728.043516" xlink:href="#m61f167e41f" y="500.034375"/>
     <use style="fill:#ff0000;stroke:#ff0000;" x="741.949314" xlink:href="#m61f167e41f" y="517.359375"/>
     <use style="fill:#ff0000;stroke:#ff0000;" x="755.855112" xlink:href="#m61f167e41f" y="532.51875"/>
     <use style="fill:#ff0000;stroke:#ff0000;" x="769.76091" xlink:href="#m61f167e41f" y="545.5125"/>
     <use style="fill:#ff0000;stroke:#ff0000;" x="783.666708" xlink:href="#m61f167e41f" y="556.340625"/>
     <use style="fill:#ff0000;stroke:#ff0000;" x="797.572506" xlink:href="#m61f167e41f" y="565.003125"/>
     <use style="fill:#ff0000;stroke:#ff0000;" x="811.478304" xlink:href="#m61f167e41f" y="575.83125"/>
     <use style="fill:#ff0000;stroke:#ff0000;" x="825.384102" xlink:href="#m61f167e41f" y="584.49375"/>
     <use style="fill:#ff0000;stroke:#ff0000;" x="839.2899" xlink:href="#m61f167e41f" y="588.825"/>
     <use style="fill:#ff0000;stroke:#ff0000;" x="853.195698" xlink:href="#m61f167e41f" y="595.321875"/>
     <use style="fill:#ff0000;stroke:#ff0000;" x="867.101496" xlink:href="#m61f167e41f" y="599.653125"/>
     <use style="fill:#ff0000;stroke:#ff0000;" x="881.007294" xlink:href="#m61f167e41f" y="606.15"/>
     <use style="fill:#ff0000;stroke:#ff0000;" x="894.913092" xlink:href="#m61f167e41f" y="610.48125"/>
     <use style="fill:#ff0000;stroke:#ff0000;" x="908.81889" xlink:href="#m61f167e41f" y="614.8125"/>
     <use style="fill:#ff0000;stroke:#ff0000;" x="922.724688" xlink:href="#m61f167e41f" y="616.978125"/>
     <use style="fill:#ff0000;stroke:#ff0000;" x="936.630486" xlink:href="#m61f167e41f" y="619.14375"/>
     <use style="fill:#ff0000;stroke:#ff0000;" x="950.536284" xlink:href="#m61f167e41f" y="623.475"/>
     <use style="fill:#ff0000;stroke:#ff0000;" x="964.442082" xlink:href="#m61f167e41f" y="625.640625"/>
     <use style="fill:#ff0000;stroke:#ff0000;" x="978.34788" xlink:href="#m61f167e41f" y="625.640625"/>
     <use style="fill:#ff0000;stroke:#ff0000;" x="992.253678" xlink:href="#m61f167e41f" y="627.80625"/>
    </g>
   </g>
   <g id="patch_3">
    <path d="M 144 640.8 
L 144 86.4 
" style="fill:none;stroke:#000000;stroke-linecap:square;stroke-linejoin:miter;stroke-width:0.8;"/>
   </g>
   <g id="patch_4">
    <path d="M 1036.8 640.8 
L 1036.8 86.4 
" style="fill:none;stroke:#000000;stroke-linecap:square;stroke-linejoin:miter;stroke-width:0.8;"/>
   </g>
   <g id="patch_5">
    <path d="M 144 640.8 
L 1036.8 640.8 
" style="fill:none;stroke:#000000;stroke-linecap:square;stroke-linejoin:miter;stroke-width:0.8;"/>
   </g>
   <g id="patch_6">
    <path d="M 144 86.4 
L 1036.8 86.4 
" style="fill:none;stroke:#000000;stroke-linecap:square;stroke-linejoin:miter;stroke-width:0.8;"/>
   </g>
   <g id="text_19">
    <!-- Charging time =41.7235s -->
    <g transform="translate(399.310451 304.8)scale(0.1 -0.1)">
     <defs>
      <path d="M 4122 4306 
L 4122 3641 
Q 3803 3938 3442 4084 
Q 3081 4231 2675 4231 
Q 1875 4231 1450 3742 
Q 1025 3253 1025 2328 
Q 1025 1406 1450 917 
Q 1875 428 2675 428 
Q 3081 428 3442 575 
Q 3803 722 4122 1019 
L 4122 359 
Q 3791 134 3420 21 
Q 3050 -91 2638 -91 
Q 1578 -91 968 557 
Q 359 1206 359 2328 
Q 359 3453 968 4101 
Q 1578 4750 2638 4750 
Q 3056 4750 3426 4639 
Q 3797 4528 4122 4306 
z
" id="DejaVuSans-43" transform="scale(0.015625)"/>
      <path d="M 3513 2113 
L 3513 0 
L 2938 0 
L 2938 2094 
Q 2938 2591 2744 2837 
Q 2550 3084 2163 3084 
Q 1697 3084 1428 2787 
Q 1159 2491 1159 1978 
L 1159 0 
L 581 0 
L 581 4863 
L 1159 4863 
L 1159 2956 
Q 1366 3272 1645 3428 
Q 1925 3584 2291 3584 
Q 2894 3584 3203 3211 
Q 3513 2838 3513 2113 
z
" id="DejaVuSans-68" transform="scale(0.015625)"/>
      <path d="M 2631 2963 
Q 2534 3019 2420 3045 
Q 2306 3072 2169 3072 
Q 1681 3072 1420 2755 
Q 1159 2438 1159 1844 
L 1159 0 
L 581 0 
L 581 3500 
L 1159 3500 
L 1159 2956 
Q 1341 3275 1631 3429 
Q 1922 3584 2338 3584 
Q 2397 3584 2469 3576 
Q 2541 3569 2628 3553 
L 2631 2963 
z
" id="DejaVuSans-72" transform="scale(0.015625)"/>
      <path d="M 3513 2113 
L 3513 0 
L 2938 0 
L 2938 2094 
Q 2938 2591 2744 2837 
Q 2550 3084 2163 3084 
Q 1697 3084 1428 2787 
Q 1159 2491 1159 1978 
L 1159 0 
L 581 0 
L 581 3500 
L 1159 3500 
L 1159 2956 
Q 1366 3272 1645 3428 
Q 1925 3584 2291 3584 
Q 2894 3584 3203 3211 
Q 3513 2838 3513 2113 
z
" id="DejaVuSans-6e" transform="scale(0.015625)"/>
      <path d="M 678 2906 
L 4684 2906 
L 4684 2381 
L 678 2381 
L 678 2906 
z
M 678 1631 
L 4684 1631 
L 4684 1100 
L 678 1100 
L 678 1631 
z
" id="DejaVuSans-3d" transform="scale(0.015625)"/>
     </defs>
     <use xlink:href="#DejaVuSans-43"/>
     <use x="69.824219" xlink:href="#DejaVuSans-68"/>
     <use x="133.203125" xlink:href="#DejaVuSans-61"/>
     <use x="194.482422" xlink:href="#DejaVuSans-72"/>
     <use x="233.845703" xlink:href="#DejaVuSans-67"/>
     <use x="297.322266" xlink:href="#DejaVuSans-69"/>
     <use x="325.105469" xlink:href="#DejaVuSans-6e"/>
     <use x="388.484375" xlink:href="#DejaVuSans-67"/>
     <use x="451.960938" xlink:href="#DejaVuSans-20"/>
     <use x="483.748047" xlink:href="#DejaVuSans-74"/>
     <use x="522.957031" xlink:href="#DejaVuSans-69"/>
     <use x="550.740234" xlink:href="#DejaVuSans-6d"/>
     <use x="648.152344" xlink:href="#DejaVuSans-65"/>
     <use x="709.675781" xlink:href="#DejaVuSans-20"/>
     <use x="741.462891" xlink:href="#DejaVuSans-3d"/>
     <use x="825.251953" xlink:href="#DejaVuSans-34"/>
     <use x="888.875" xlink:href="#DejaVuSans-31"/>
     <use x="952.498047" xlink:href="#DejaVuSans-2e"/>
     <use x="984.285156" xlink:href="#DejaVuSans-37"/>
     <use x="1047.908203" xlink:href="#DejaVuSans-32"/>
     <use x="1111.53125" xlink:href="#DejaVuSans-33"/>
     <use x="1175.154297" xlink:href="#DejaVuSans-35"/>
     <use x="1238.777344" xlink:href="#DejaVuSans-73"/>
    </g>
   </g>
   <g id="text_20">
    <!-- Discharge time =38.4485s -->
    <g transform="translate(399.310451 388.8)scale(0.1 -0.1)">
     <defs>
      <path d="M 1259 4147 
L 1259 519 
L 2022 519 
Q 2988 519 3436 956 
Q 3884 1394 3884 2338 
Q 3884 3275 3436 3711 
Q 2988 4147 2022 4147 
L 1259 4147 
z
M 628 4666 
L 1925 4666 
Q 3281 4666 3915 4102 
Q 4550 3538 4550 2338 
Q 4550 1131 3912 565 
Q 3275 0 1925 0 
L 628 0 
L 628 4666 
z
" id="DejaVuSans-44" transform="scale(0.015625)"/>
      <path d="M 3122 3366 
L 3122 2828 
Q 2878 2963 2633 3030 
Q 2388 3097 2138 3097 
Q 1578 3097 1268 2742 
Q 959 2388 959 1747 
Q 959 1106 1268 751 
Q 1578 397 2138 397 
Q 2388 397 2633 464 
Q 2878 531 3122 666 
L 3122 134 
Q 2881 22 2623 -34 
Q 2366 -91 2075 -91 
Q 1284 -91 818 406 
Q 353 903 353 1747 
Q 353 2603 823 3093 
Q 1294 3584 2113 3584 
Q 2378 3584 2631 3529 
Q 2884 3475 3122 3366 
z
" id="DejaVuSans-63" transform="scale(0.015625)"/>
     </defs>
     <use xlink:href="#DejaVuSans-44"/>
     <use x="77.001953" xlink:href="#DejaVuSans-69"/>
     <use x="104.785156" xlink:href="#DejaVuSans-73"/>
     <use x="156.884766" xlink:href="#DejaVuSans-63"/>
     <use x="211.865234" xlink:href="#DejaVuSans-68"/>
     <use x="275.244141" xlink:href="#DejaVuSans-61"/>
     <use x="336.523438" xlink:href="#DejaVuSans-72"/>
     <use x="375.886719" xlink:href="#DejaVuSans-67"/>
     <use x="439.363281" xlink:href="#DejaVuSans-65"/>
     <use x="500.886719" xlink:href="#DejaVuSans-20"/>
     <use x="532.673828" xlink:href="#DejaVuSans-74"/>
     <use x="571.882812" xlink:href="#DejaVuSans-69"/>
     <use x="599.666016" xlink:href="#DejaVuSans-6d"/>
     <use x="697.078125" xlink:href="#DejaVuSans-65"/>
     <use x="758.601562" xlink:href="#DejaVuSans-20"/>
     <use x="790.388672" xlink:href="#DejaVuSans-3d"/>
     <use x="874.177734" xlink:href="#DejaVuSans-33"/>
     <use x="937.800781" xlink:href="#DejaVuSans-38"/>
     <use x="1001.423828" xlink:href="#DejaVuSans-2e"/>
     <use x="1033.210938" xlink:href="#DejaVuSans-34"/>
     <use x="1096.833984" xlink:href="#DejaVuSans-34"/>
     <use x="1160.457031" xlink:href="#DejaVuSans-38"/>
     <use x="1224.080078" xlink:href="#DejaVuSans-35"/>
     <use x="1287.703125" xlink:href="#DejaVuSans-73"/>
    </g>
   </g>
   <g id="text_21">
    <!-- Capacitor charge/discharge graph -->
    <g transform="translate(445.771172 80.4)scale(0.17 -0.17)">
     <defs>
      <path d="M 1159 525 
L 1159 -1331 
L 581 -1331 
L 581 3500 
L 1159 3500 
L 1159 2969 
Q 1341 3281 1617 3432 
Q 1894 3584 2278 3584 
Q 2916 3584 3314 3078 
Q 3713 2572 3713 1747 
Q 3713 922 3314 415 
Q 2916 -91 2278 -91 
Q 1894 -91 1617 61 
Q 1341 213 1159 525 
z
M 3116 1747 
Q 3116 2381 2855 2742 
Q 2594 3103 2138 3103 
Q 1681 3103 1420 2742 
Q 1159 2381 1159 1747 
Q 1159 1113 1420 752 
Q 1681 391 2138 391 
Q 2594 391 2855 752 
Q 3116 1113 3116 1747 
z
" id="DejaVuSans-70" transform="scale(0.015625)"/>
      <path d="M 1625 4666 
L 2156 4666 
L 531 -594 
L 0 -594 
L 1625 4666 
z
" id="DejaVuSans-2f" transform="scale(0.015625)"/>
      <path d="M 2906 2969 
L 2906 4863 
L 3481 4863 
L 3481 0 
L 2906 0 
L 2906 525 
Q 2725 213 2448 61 
Q 2172 -91 1784 -91 
Q 1150 -91 751 415 
Q 353 922 353 1747 
Q 353 2572 751 3078 
Q 1150 3584 1784 3584 
Q 2172 3584 2448 3432 
Q 2725 3281 2906 2969 
z
M 947 1747 
Q 947 1113 1208 752 
Q 1469 391 1925 391 
Q 2381 391 2643 752 
Q 2906 1113 2906 1747 
Q 2906 2381 2643 2742 
Q 2381 3103 1925 3103 
Q 1469 3103 1208 2742 
Q 947 2381 947 1747 
z
" id="DejaVuSans-64" transform="scale(0.015625)"/>
     </defs>
     <use xlink:href="#DejaVuSans-43"/>
     <use x="69.824219" xlink:href="#DejaVuSans-61"/>
     <use x="131.103516" xlink:href="#DejaVuSans-70"/>
     <use x="194.580078" xlink:href="#DejaVuSans-61"/>
     <use x="255.859375" xlink:href="#DejaVuSans-63"/>
     <use x="310.839844" xlink:href="#DejaVuSans-69"/>
     <use x="338.623047" xlink:href="#DejaVuSans-74"/>
     <use x="377.832031" xlink:href="#DejaVuSans-6f"/>
     <use x="439.013672" xlink:href="#DejaVuSans-72"/>
     <use x="480.126953" xlink:href="#DejaVuSans-20"/>
     <use x="511.914062" xlink:href="#DejaVuSans-63"/>
     <use x="566.894531" xlink:href="#DejaVuSans-68"/>
     <use x="630.273438" xlink:href="#DejaVuSans-61"/>
     <use x="691.552734" xlink:href="#DejaVuSans-72"/>
     <use x="730.916016" xlink:href="#DejaVuSans-67"/>
     <use x="794.392578" xlink:href="#DejaVuSans-65"/>
     <use x="855.916016" xlink:href="#DejaVuSans-2f"/>
     <use x="889.607422" xlink:href="#DejaVuSans-64"/>
     <use x="953.083984" xlink:href="#DejaVuSans-69"/>
     <use x="980.867188" xlink:href="#DejaVuSans-73"/>
     <use x="1032.966797" xlink:href="#DejaVuSans-63"/>
     <use x="1087.947266" xlink:href="#DejaVuSans-68"/>
     <use x="1151.326172" xlink:href="#DejaVuSans-61"/>
     <use x="1212.605469" xlink:href="#DejaVuSans-72"/>
     <use x="1251.96875" xlink:href="#DejaVuSans-67"/>
     <use x="1315.445312" xlink:href="#DejaVuSans-65"/>
     <use x="1376.96875" xlink:href="#DejaVuSans-20"/>
     <use x="1408.755859" xlink:href="#DejaVuSans-67"/>
     <use x="1472.232422" xlink:href="#DejaVuSans-72"/>
     <use x="1513.345703" xlink:href="#DejaVuSans-61"/>
     <use x="1574.625" xlink:href="#DejaVuSans-70"/>
     <use x="1638.101562" xlink:href="#DejaVuSans-68"/>
    </g>
   </g>
   <g id="legend_1">
    <g id="patch_7">
     <path d="M 979.235937 109.078125 
L 1029.8 109.078125 
Q 1031.8 109.078125 1031.8 107.078125 
L 1031.8 93.4 
Q 1031.8 91.4 1029.8 91.4 
L 979.235937 91.4 
Q 977.235937 91.4 977.235937 93.4 
L 977.235937 107.078125 
Q 977.235937 109.078125 979.235937 109.078125 
z
" style="fill:#ffffff;opacity:0.8;stroke:#cccccc;stroke-linejoin:miter;"/>
    </g>
    <g id="line2d_154">
     <path d="M 981.235937 99.498438 
L 1001.235937 99.498438 
" style="fill:none;stroke:#ff0000;stroke-linecap:square;stroke-width:1.5;"/>
    </g>
    <g id="line2d_155">
     <g>
      <use style="fill:#ff0000;stroke:#ff0000;" x="991.235937" xlink:href="#m61f167e41f" y="99.498438"/>
     </g>
    </g>
    <g id="text_22">
     <!-- V(t) -->
     <g transform="translate(1009.235937 102.998438)scale(0.1 -0.1)">
      <defs>
       <path d="M 1984 4856 
Q 1566 4138 1362 3434 
Q 1159 2731 1159 2009 
Q 1159 1288 1364 580 
Q 1569 -128 1984 -844 
L 1484 -844 
Q 1016 -109 783 600 
Q 550 1309 550 2009 
Q 550 2706 781 3412 
Q 1013 4119 1484 4856 
L 1984 4856 
z
" id="DejaVuSans-28" transform="scale(0.015625)"/>
       <path d="M 513 4856 
L 1013 4856 
Q 1481 4119 1714 3412 
Q 1947 2706 1947 2009 
Q 1947 1309 1714 600 
Q 1481 -109 1013 -844 
L 513 -844 
Q 928 -128 1133 580 
Q 1338 1288 1338 2009 
Q 1338 2731 1133 3434 
Q 928 4138 513 4856 
z
" id="DejaVuSans-29" transform="scale(0.015625)"/>
      </defs>
      <use xlink:href="#DejaVuSans-56"/>
      <use x="68.408203" xlink:href="#DejaVuSans-28"/>
      <use x="107.421875" xlink:href="#DejaVuSans-74"/>
      <use x="146.630859" xlink:href="#DejaVuSans-29"/>
     </g>
    </g>
   </g>
  </g>
 </g>
 <defs>
  <clipPath id="p260129379f">
   <rect height="554.4" width="892.8" x="144" y="86.4"/>
  </clipPath>
 </defs>
</svg>
